<mxfile host="app.diagrams.net" agent="Mozilla/5.0 (Macintosh; Intel Mac OS X 10_15_7) AppleWebKit/605.1.15 (KHTML, like Gecko) Version/17.1 Safari/605.1.15" version="24.8.4">
  <diagram id="C5RBs43oDa-KdzZeNtuy" name="Page-1">
    <mxGraphModel dx="4188" dy="2549" grid="1" gridSize="10" guides="1" tooltips="1" connect="1" arrows="1" fold="1" page="1" pageScale="1" pageWidth="827" pageHeight="1169" math="0" shadow="0">
      <root>
        <mxCell id="WIyWlLk6GJQsqaUBKTNV-0" />
        <mxCell id="WIyWlLk6GJQsqaUBKTNV-1" parent="WIyWlLk6GJQsqaUBKTNV-0" />
        <mxCell id="0935TuHeCaS-1WZXopsR-0" value="Main" style="swimlane;fontStyle=1;align=center;verticalAlign=top;childLayout=stackLayout;horizontal=1;startSize=26;horizontalStack=0;resizeParent=1;resizeParentMax=0;resizeLast=0;collapsible=1;marginBottom=0;whiteSpace=wrap;html=1;" parent="WIyWlLk6GJQsqaUBKTNV-1" vertex="1">
          <mxGeometry x="-30" y="800" width="160" height="60" as="geometry" />
        </mxCell>
        <mxCell id="0935TuHeCaS-1WZXopsR-2" value="" style="line;strokeWidth=1;fillColor=none;align=left;verticalAlign=middle;spacingTop=-1;spacingLeft=3;spacingRight=3;rotatable=0;labelPosition=right;points=[];portConstraint=eastwest;strokeColor=inherit;" parent="0935TuHeCaS-1WZXopsR-0" vertex="1">
          <mxGeometry y="26" width="160" height="8" as="geometry" />
        </mxCell>
        <mxCell id="0935TuHeCaS-1WZXopsR-3" value="+main(String[] args):void" style="text;strokeColor=none;fillColor=none;align=left;verticalAlign=top;spacingLeft=4;spacingRight=4;overflow=hidden;rotatable=0;points=[[0,0.5],[1,0.5]];portConstraint=eastwest;whiteSpace=wrap;html=1;" parent="0935TuHeCaS-1WZXopsR-0" vertex="1">
          <mxGeometry y="34" width="160" height="26" as="geometry" />
        </mxCell>
        <mxCell id="0935TuHeCaS-1WZXopsR-4" value="&lt;i&gt;CommandFactory&lt;/i&gt;" style="swimlane;fontStyle=1;align=center;verticalAlign=top;childLayout=stackLayout;horizontal=1;startSize=30;horizontalStack=0;resizeParent=1;resizeParentMax=0;resizeLast=0;collapsible=1;marginBottom=0;whiteSpace=wrap;html=1;" parent="WIyWlLk6GJQsqaUBKTNV-1" vertex="1">
          <mxGeometry x="-30" y="570" width="160" height="64" as="geometry" />
        </mxCell>
        <mxCell id="0935TuHeCaS-1WZXopsR-6" value="" style="line;strokeWidth=1;fillColor=none;align=left;verticalAlign=middle;spacingTop=-1;spacingLeft=3;spacingRight=3;rotatable=0;labelPosition=right;points=[];portConstraint=eastwest;strokeColor=inherit;" parent="0935TuHeCaS-1WZXopsR-4" vertex="1">
          <mxGeometry y="30" width="160" height="8" as="geometry" />
        </mxCell>
        <mxCell id="0935TuHeCaS-1WZXopsR-7" value="+create():Command" style="text;strokeColor=none;fillColor=none;align=left;verticalAlign=top;spacingLeft=4;spacingRight=4;overflow=hidden;rotatable=0;points=[[0,0.5],[1,0.5]];portConstraint=eastwest;whiteSpace=wrap;html=1;" parent="0935TuHeCaS-1WZXopsR-4" vertex="1">
          <mxGeometry y="38" width="160" height="26" as="geometry" />
        </mxCell>
        <mxCell id="0935TuHeCaS-1WZXopsR-8" style="edgeStyle=orthogonalEdgeStyle;rounded=0;orthogonalLoop=1;jettySize=auto;html=1;exitX=0.5;exitY=0;exitDx=0;exitDy=0;entryX=0.5;entryY=1;entryDx=0;entryDy=0;entryPerimeter=0;strokeWidth=2;endArrow=openThin;endFill=0;endSize=15;" parent="WIyWlLk6GJQsqaUBKTNV-1" source="0935TuHeCaS-1WZXopsR-0" target="0935TuHeCaS-1WZXopsR-7" edge="1">
          <mxGeometry relative="1" as="geometry" />
        </mxCell>
        <mxCell id="0935TuHeCaS-1WZXopsR-9" value="UndoCommandFactory" style="swimlane;fontStyle=1;align=center;verticalAlign=top;childLayout=stackLayout;horizontal=1;startSize=26;horizontalStack=0;resizeParent=1;resizeParentMax=0;resizeLast=0;collapsible=1;marginBottom=0;whiteSpace=wrap;html=1;" parent="WIyWlLk6GJQsqaUBKTNV-1" vertex="1">
          <mxGeometry x="500" y="300" width="160" height="96" as="geometry" />
        </mxCell>
        <mxCell id="0935TuHeCaS-1WZXopsR-10" value="+ field: type" style="text;strokeColor=none;fillColor=none;align=left;verticalAlign=top;spacingLeft=4;spacingRight=4;overflow=hidden;rotatable=0;points=[[0,0.5],[1,0.5]];portConstraint=eastwest;whiteSpace=wrap;html=1;" parent="0935TuHeCaS-1WZXopsR-9" vertex="1">
          <mxGeometry y="26" width="160" height="30" as="geometry" />
        </mxCell>
        <mxCell id="0935TuHeCaS-1WZXopsR-11" value="" style="line;strokeWidth=1;fillColor=none;align=left;verticalAlign=middle;spacingTop=-1;spacingLeft=3;spacingRight=3;rotatable=0;labelPosition=right;points=[];portConstraint=eastwest;strokeColor=inherit;" parent="0935TuHeCaS-1WZXopsR-9" vertex="1">
          <mxGeometry y="56" width="160" height="10" as="geometry" />
        </mxCell>
        <mxCell id="0935TuHeCaS-1WZXopsR-12" value="+create():Command" style="text;strokeColor=none;fillColor=none;align=left;verticalAlign=top;spacingLeft=4;spacingRight=4;overflow=hidden;rotatable=0;points=[[0,0.5],[1,0.5]];portConstraint=eastwest;whiteSpace=wrap;html=1;" parent="0935TuHeCaS-1WZXopsR-9" vertex="1">
          <mxGeometry y="66" width="160" height="30" as="geometry" />
        </mxCell>
        <mxCell id="0935TuHeCaS-1WZXopsR-13" value="RedoCommandFactory" style="swimlane;fontStyle=1;align=center;verticalAlign=top;childLayout=stackLayout;horizontal=1;startSize=26;horizontalStack=0;resizeParent=1;resizeParentMax=0;resizeLast=0;collapsible=1;marginBottom=0;whiteSpace=wrap;html=1;" parent="WIyWlLk6GJQsqaUBKTNV-1" vertex="1">
          <mxGeometry x="700" y="300" width="160" height="96" as="geometry" />
        </mxCell>
        <mxCell id="0935TuHeCaS-1WZXopsR-14" value="+ field: type" style="text;strokeColor=none;fillColor=none;align=left;verticalAlign=top;spacingLeft=4;spacingRight=4;overflow=hidden;rotatable=0;points=[[0,0.5],[1,0.5]];portConstraint=eastwest;whiteSpace=wrap;html=1;" parent="0935TuHeCaS-1WZXopsR-13" vertex="1">
          <mxGeometry y="26" width="160" height="30" as="geometry" />
        </mxCell>
        <mxCell id="0935TuHeCaS-1WZXopsR-15" value="" style="line;strokeWidth=1;fillColor=none;align=left;verticalAlign=middle;spacingTop=-1;spacingLeft=3;spacingRight=3;rotatable=0;labelPosition=right;points=[];portConstraint=eastwest;strokeColor=inherit;" parent="0935TuHeCaS-1WZXopsR-13" vertex="1">
          <mxGeometry y="56" width="160" height="10" as="geometry" />
        </mxCell>
        <mxCell id="0935TuHeCaS-1WZXopsR-16" value="+create():Command" style="text;strokeColor=none;fillColor=none;align=left;verticalAlign=top;spacingLeft=4;spacingRight=4;overflow=hidden;rotatable=0;points=[[0,0.5],[1,0.5]];portConstraint=eastwest;whiteSpace=wrap;html=1;" parent="0935TuHeCaS-1WZXopsR-13" vertex="1">
          <mxGeometry y="66" width="160" height="30" as="geometry" />
        </mxCell>
        <mxCell id="0935TuHeCaS-1WZXopsR-17" value="RemoveHeroCommandFactory" style="swimlane;fontStyle=1;align=center;verticalAlign=top;childLayout=stackLayout;horizontal=1;startSize=26;horizontalStack=0;resizeParent=1;resizeParentMax=0;resizeLast=0;collapsible=1;marginBottom=0;whiteSpace=wrap;html=1;" parent="WIyWlLk6GJQsqaUBKTNV-1" vertex="1">
          <mxGeometry x="-640" y="300" width="210" height="96" as="geometry" />
        </mxCell>
        <mxCell id="0935TuHeCaS-1WZXopsR-18" value="+ field: type" style="text;strokeColor=none;fillColor=none;align=left;verticalAlign=top;spacingLeft=4;spacingRight=4;overflow=hidden;rotatable=0;points=[[0,0.5],[1,0.5]];portConstraint=eastwest;whiteSpace=wrap;html=1;" parent="0935TuHeCaS-1WZXopsR-17" vertex="1">
          <mxGeometry y="26" width="210" height="30" as="geometry" />
        </mxCell>
        <mxCell id="0935TuHeCaS-1WZXopsR-19" value="" style="line;strokeWidth=1;fillColor=none;align=left;verticalAlign=middle;spacingTop=-1;spacingLeft=3;spacingRight=3;rotatable=0;labelPosition=right;points=[];portConstraint=eastwest;strokeColor=inherit;" parent="0935TuHeCaS-1WZXopsR-17" vertex="1">
          <mxGeometry y="56" width="210" height="10" as="geometry" />
        </mxCell>
        <mxCell id="0935TuHeCaS-1WZXopsR-20" value="+create():Command" style="text;strokeColor=none;fillColor=none;align=left;verticalAlign=top;spacingLeft=4;spacingRight=4;overflow=hidden;rotatable=0;points=[[0,0.5],[1,0.5]];portConstraint=eastwest;whiteSpace=wrap;html=1;" parent="0935TuHeCaS-1WZXopsR-17" vertex="1">
          <mxGeometry y="66" width="210" height="30" as="geometry" />
        </mxCell>
        <mxCell id="0935TuHeCaS-1WZXopsR-21" value="CallHeroSkillCommandFactory" style="swimlane;fontStyle=1;align=center;verticalAlign=top;childLayout=stackLayout;horizontal=1;startSize=26;horizontalStack=0;resizeParent=1;resizeParentMax=0;resizeLast=0;collapsible=1;marginBottom=0;whiteSpace=wrap;html=1;" parent="WIyWlLk6GJQsqaUBKTNV-1" vertex="1">
          <mxGeometry x="-370" y="300" width="230" height="96" as="geometry" />
        </mxCell>
        <mxCell id="0935TuHeCaS-1WZXopsR-22" value="+ field: type" style="text;strokeColor=none;fillColor=none;align=left;verticalAlign=top;spacingLeft=4;spacingRight=4;overflow=hidden;rotatable=0;points=[[0,0.5],[1,0.5]];portConstraint=eastwest;whiteSpace=wrap;html=1;" parent="0935TuHeCaS-1WZXopsR-21" vertex="1">
          <mxGeometry y="26" width="230" height="30" as="geometry" />
        </mxCell>
        <mxCell id="0935TuHeCaS-1WZXopsR-23" value="" style="line;strokeWidth=1;fillColor=none;align=left;verticalAlign=middle;spacingTop=-1;spacingLeft=3;spacingRight=3;rotatable=0;labelPosition=right;points=[];portConstraint=eastwest;strokeColor=inherit;" parent="0935TuHeCaS-1WZXopsR-21" vertex="1">
          <mxGeometry y="56" width="230" height="10" as="geometry" />
        </mxCell>
        <mxCell id="0935TuHeCaS-1WZXopsR-24" value="+create():Command" style="text;strokeColor=none;fillColor=none;align=left;verticalAlign=top;spacingLeft=4;spacingRight=4;overflow=hidden;rotatable=0;points=[[0,0.5],[1,0.5]];portConstraint=eastwest;whiteSpace=wrap;html=1;" parent="0935TuHeCaS-1WZXopsR-21" vertex="1">
          <mxGeometry y="66" width="230" height="30" as="geometry" />
        </mxCell>
        <mxCell id="0935TuHeCaS-1WZXopsR-25" value="ChangePlayerNameCommandFactory" style="swimlane;fontStyle=1;align=center;verticalAlign=top;childLayout=stackLayout;horizontal=1;startSize=26;horizontalStack=0;resizeParent=1;resizeParentMax=0;resizeLast=0;collapsible=1;marginBottom=0;whiteSpace=wrap;html=1;" parent="WIyWlLk6GJQsqaUBKTNV-1" vertex="1">
          <mxGeometry x="-1800" y="300" width="260" height="96" as="geometry" />
        </mxCell>
        <mxCell id="0935TuHeCaS-1WZXopsR-26" value="+ field: type" style="text;strokeColor=none;fillColor=none;align=left;verticalAlign=top;spacingLeft=4;spacingRight=4;overflow=hidden;rotatable=0;points=[[0,0.5],[1,0.5]];portConstraint=eastwest;whiteSpace=wrap;html=1;" parent="0935TuHeCaS-1WZXopsR-25" vertex="1">
          <mxGeometry y="26" width="260" height="30" as="geometry" />
        </mxCell>
        <mxCell id="0935TuHeCaS-1WZXopsR-27" value="" style="line;strokeWidth=1;fillColor=none;align=left;verticalAlign=middle;spacingTop=-1;spacingLeft=3;spacingRight=3;rotatable=0;labelPosition=right;points=[];portConstraint=eastwest;strokeColor=inherit;" parent="0935TuHeCaS-1WZXopsR-25" vertex="1">
          <mxGeometry y="56" width="260" height="10" as="geometry" />
        </mxCell>
        <mxCell id="0935TuHeCaS-1WZXopsR-28" value="+create():Command" style="text;strokeColor=none;fillColor=none;align=left;verticalAlign=top;spacingLeft=4;spacingRight=4;overflow=hidden;rotatable=0;points=[[0,0.5],[1,0.5]];portConstraint=eastwest;whiteSpace=wrap;html=1;" parent="0935TuHeCaS-1WZXopsR-25" vertex="1">
          <mxGeometry y="66" width="260" height="30" as="geometry" />
        </mxCell>
        <mxCell id="0935TuHeCaS-1WZXopsR-29" value="CreatePlayerCommandFactory" style="swimlane;fontStyle=1;align=center;verticalAlign=top;childLayout=stackLayout;horizontal=1;startSize=26;horizontalStack=0;resizeParent=1;resizeParentMax=0;resizeLast=0;collapsible=1;marginBottom=0;whiteSpace=wrap;html=1;" parent="WIyWlLk6GJQsqaUBKTNV-1" vertex="1">
          <mxGeometry x="-1500" y="300" width="230" height="96" as="geometry" />
        </mxCell>
        <mxCell id="0935TuHeCaS-1WZXopsR-30" value="+ field: type" style="text;strokeColor=none;fillColor=none;align=left;verticalAlign=top;spacingLeft=4;spacingRight=4;overflow=hidden;rotatable=0;points=[[0,0.5],[1,0.5]];portConstraint=eastwest;whiteSpace=wrap;html=1;" parent="0935TuHeCaS-1WZXopsR-29" vertex="1">
          <mxGeometry y="26" width="230" height="30" as="geometry" />
        </mxCell>
        <mxCell id="0935TuHeCaS-1WZXopsR-31" value="" style="line;strokeWidth=1;fillColor=none;align=left;verticalAlign=middle;spacingTop=-1;spacingLeft=3;spacingRight=3;rotatable=0;labelPosition=right;points=[];portConstraint=eastwest;strokeColor=inherit;" parent="0935TuHeCaS-1WZXopsR-29" vertex="1">
          <mxGeometry y="56" width="230" height="10" as="geometry" />
        </mxCell>
        <mxCell id="0935TuHeCaS-1WZXopsR-32" value="+create():Command" style="text;strokeColor=none;fillColor=none;align=left;verticalAlign=top;spacingLeft=4;spacingRight=4;overflow=hidden;rotatable=0;points=[[0,0.5],[1,0.5]];portConstraint=eastwest;whiteSpace=wrap;html=1;" parent="0935TuHeCaS-1WZXopsR-29" vertex="1">
          <mxGeometry y="66" width="230" height="30" as="geometry" />
        </mxCell>
        <mxCell id="NpN_3oIsCTOHhuz7XpSE-4" value="AddHeroCommandFactory" style="swimlane;fontStyle=1;align=center;verticalAlign=top;childLayout=stackLayout;horizontal=1;startSize=26;horizontalStack=0;resizeParent=1;resizeParentMax=0;resizeLast=0;collapsible=1;marginBottom=0;whiteSpace=wrap;html=1;" parent="WIyWlLk6GJQsqaUBKTNV-1" vertex="1">
          <mxGeometry x="-920" y="300" width="230" height="96" as="geometry" />
        </mxCell>
        <mxCell id="NpN_3oIsCTOHhuz7XpSE-5" value="+ field: type" style="text;strokeColor=none;fillColor=none;align=left;verticalAlign=top;spacingLeft=4;spacingRight=4;overflow=hidden;rotatable=0;points=[[0,0.5],[1,0.5]];portConstraint=eastwest;whiteSpace=wrap;html=1;" parent="NpN_3oIsCTOHhuz7XpSE-4" vertex="1">
          <mxGeometry y="26" width="230" height="30" as="geometry" />
        </mxCell>
        <mxCell id="NpN_3oIsCTOHhuz7XpSE-6" value="" style="line;strokeWidth=1;fillColor=none;align=left;verticalAlign=middle;spacingTop=-1;spacingLeft=3;spacingRight=3;rotatable=0;labelPosition=right;points=[];portConstraint=eastwest;strokeColor=inherit;" parent="NpN_3oIsCTOHhuz7XpSE-4" vertex="1">
          <mxGeometry y="56" width="230" height="10" as="geometry" />
        </mxCell>
        <mxCell id="NpN_3oIsCTOHhuz7XpSE-7" value="+create():Command" style="text;strokeColor=none;fillColor=none;align=left;verticalAlign=top;spacingLeft=4;spacingRight=4;overflow=hidden;rotatable=0;points=[[0,0.5],[1,0.5]];portConstraint=eastwest;whiteSpace=wrap;html=1;" parent="NpN_3oIsCTOHhuz7XpSE-4" vertex="1">
          <mxGeometry y="66" width="230" height="30" as="geometry" />
        </mxCell>
        <mxCell id="NpN_3oIsCTOHhuz7XpSE-8" value="ShowPlayerDetailsCommandFactory" style="swimlane;fontStyle=1;align=center;verticalAlign=top;childLayout=stackLayout;horizontal=1;startSize=26;horizontalStack=0;resizeParent=1;resizeParentMax=0;resizeLast=0;collapsible=1;marginBottom=0;whiteSpace=wrap;html=1;" parent="WIyWlLk6GJQsqaUBKTNV-1" vertex="1">
          <mxGeometry x="-80" y="300" width="270" height="96" as="geometry" />
        </mxCell>
        <mxCell id="NpN_3oIsCTOHhuz7XpSE-9" value="+ field: type" style="text;strokeColor=none;fillColor=none;align=left;verticalAlign=top;spacingLeft=4;spacingRight=4;overflow=hidden;rotatable=0;points=[[0,0.5],[1,0.5]];portConstraint=eastwest;whiteSpace=wrap;html=1;" parent="NpN_3oIsCTOHhuz7XpSE-8" vertex="1">
          <mxGeometry y="26" width="270" height="30" as="geometry" />
        </mxCell>
        <mxCell id="NpN_3oIsCTOHhuz7XpSE-10" value="" style="line;strokeWidth=1;fillColor=none;align=left;verticalAlign=middle;spacingTop=-1;spacingLeft=3;spacingRight=3;rotatable=0;labelPosition=right;points=[];portConstraint=eastwest;strokeColor=inherit;" parent="NpN_3oIsCTOHhuz7XpSE-8" vertex="1">
          <mxGeometry y="56" width="270" height="10" as="geometry" />
        </mxCell>
        <mxCell id="NpN_3oIsCTOHhuz7XpSE-11" value="+create():Command" style="text;strokeColor=none;fillColor=none;align=left;verticalAlign=top;spacingLeft=4;spacingRight=4;overflow=hidden;rotatable=0;points=[[0,0.5],[1,0.5]];portConstraint=eastwest;whiteSpace=wrap;html=1;" parent="NpN_3oIsCTOHhuz7XpSE-8" vertex="1">
          <mxGeometry y="66" width="270" height="30" as="geometry" />
        </mxCell>
        <mxCell id="NpN_3oIsCTOHhuz7XpSE-12" value="ShowAllPlayerCommandFactory" style="swimlane;fontStyle=1;align=center;verticalAlign=top;childLayout=stackLayout;horizontal=1;startSize=26;horizontalStack=0;resizeParent=1;resizeParentMax=0;resizeLast=0;collapsible=1;marginBottom=0;whiteSpace=wrap;html=1;" parent="WIyWlLk6GJQsqaUBKTNV-1" vertex="1">
          <mxGeometry x="220" y="300" width="230" height="96" as="geometry" />
        </mxCell>
        <mxCell id="NpN_3oIsCTOHhuz7XpSE-13" value="+ field: type" style="text;strokeColor=none;fillColor=none;align=left;verticalAlign=top;spacingLeft=4;spacingRight=4;overflow=hidden;rotatable=0;points=[[0,0.5],[1,0.5]];portConstraint=eastwest;whiteSpace=wrap;html=1;" parent="NpN_3oIsCTOHhuz7XpSE-12" vertex="1">
          <mxGeometry y="26" width="230" height="30" as="geometry" />
        </mxCell>
        <mxCell id="NpN_3oIsCTOHhuz7XpSE-14" value="" style="line;strokeWidth=1;fillColor=none;align=left;verticalAlign=middle;spacingTop=-1;spacingLeft=3;spacingRight=3;rotatable=0;labelPosition=right;points=[];portConstraint=eastwest;strokeColor=inherit;" parent="NpN_3oIsCTOHhuz7XpSE-12" vertex="1">
          <mxGeometry y="56" width="230" height="10" as="geometry" />
        </mxCell>
        <mxCell id="NpN_3oIsCTOHhuz7XpSE-15" value="+create():Command" style="text;strokeColor=none;fillColor=none;align=left;verticalAlign=top;spacingLeft=4;spacingRight=4;overflow=hidden;rotatable=0;points=[[0,0.5],[1,0.5]];portConstraint=eastwest;whiteSpace=wrap;html=1;" parent="NpN_3oIsCTOHhuz7XpSE-12" vertex="1">
          <mxGeometry y="66" width="230" height="30" as="geometry" />
        </mxCell>
        <mxCell id="NpN_3oIsCTOHhuz7XpSE-16" value="&lt;span style=&quot;white-space: pre;&quot;&gt;&#x9;SetCurrent&lt;/span&gt;PlayerCommandFactory" style="swimlane;fontStyle=1;align=center;verticalAlign=top;childLayout=stackLayout;horizontal=1;startSize=26;horizontalStack=0;resizeParent=1;resizeParentMax=0;resizeLast=0;collapsible=1;marginBottom=0;whiteSpace=wrap;html=1;" parent="WIyWlLk6GJQsqaUBKTNV-1" vertex="1">
          <mxGeometry x="-1220" y="300" width="240" height="96" as="geometry" />
        </mxCell>
        <mxCell id="NpN_3oIsCTOHhuz7XpSE-17" value="+ field: type" style="text;strokeColor=none;fillColor=none;align=left;verticalAlign=top;spacingLeft=4;spacingRight=4;overflow=hidden;rotatable=0;points=[[0,0.5],[1,0.5]];portConstraint=eastwest;whiteSpace=wrap;html=1;" parent="NpN_3oIsCTOHhuz7XpSE-16" vertex="1">
          <mxGeometry y="26" width="240" height="30" as="geometry" />
        </mxCell>
        <mxCell id="NpN_3oIsCTOHhuz7XpSE-18" value="" style="line;strokeWidth=1;fillColor=none;align=left;verticalAlign=middle;spacingTop=-1;spacingLeft=3;spacingRight=3;rotatable=0;labelPosition=right;points=[];portConstraint=eastwest;strokeColor=inherit;" parent="NpN_3oIsCTOHhuz7XpSE-16" vertex="1">
          <mxGeometry y="56" width="240" height="10" as="geometry" />
        </mxCell>
        <mxCell id="NpN_3oIsCTOHhuz7XpSE-19" value="+create():Command" style="text;strokeColor=none;fillColor=none;align=left;verticalAlign=top;spacingLeft=4;spacingRight=4;overflow=hidden;rotatable=0;points=[[0,0.5],[1,0.5]];portConstraint=eastwest;whiteSpace=wrap;html=1;" parent="NpN_3oIsCTOHhuz7XpSE-16" vertex="1">
          <mxGeometry y="66" width="240" height="30" as="geometry" />
        </mxCell>
        <mxCell id="NpN_3oIsCTOHhuz7XpSE-24" value="ShowUndoRedoListCommandFactory" style="swimlane;fontStyle=1;align=center;verticalAlign=top;childLayout=stackLayout;horizontal=1;startSize=26;horizontalStack=0;resizeParent=1;resizeParentMax=0;resizeLast=0;collapsible=1;marginBottom=0;whiteSpace=wrap;html=1;" parent="WIyWlLk6GJQsqaUBKTNV-1" vertex="1">
          <mxGeometry x="910" y="300" width="270" height="96" as="geometry" />
        </mxCell>
        <mxCell id="NpN_3oIsCTOHhuz7XpSE-25" value="+ field: type" style="text;strokeColor=none;fillColor=none;align=left;verticalAlign=top;spacingLeft=4;spacingRight=4;overflow=hidden;rotatable=0;points=[[0,0.5],[1,0.5]];portConstraint=eastwest;whiteSpace=wrap;html=1;" parent="NpN_3oIsCTOHhuz7XpSE-24" vertex="1">
          <mxGeometry y="26" width="270" height="30" as="geometry" />
        </mxCell>
        <mxCell id="NpN_3oIsCTOHhuz7XpSE-26" value="" style="line;strokeWidth=1;fillColor=none;align=left;verticalAlign=middle;spacingTop=-1;spacingLeft=3;spacingRight=3;rotatable=0;labelPosition=right;points=[];portConstraint=eastwest;strokeColor=inherit;" parent="NpN_3oIsCTOHhuz7XpSE-24" vertex="1">
          <mxGeometry y="56" width="270" height="10" as="geometry" />
        </mxCell>
        <mxCell id="NpN_3oIsCTOHhuz7XpSE-27" value="+create():Command" style="text;strokeColor=none;fillColor=none;align=left;verticalAlign=top;spacingLeft=4;spacingRight=4;overflow=hidden;rotatable=0;points=[[0,0.5],[1,0.5]];portConstraint=eastwest;whiteSpace=wrap;html=1;" parent="NpN_3oIsCTOHhuz7XpSE-24" vertex="1">
          <mxGeometry y="66" width="270" height="30" as="geometry" />
        </mxCell>
        <mxCell id="NpN_3oIsCTOHhuz7XpSE-28" value="ExitCommandFactory" style="swimlane;fontStyle=1;align=center;verticalAlign=top;childLayout=stackLayout;horizontal=1;startSize=26;horizontalStack=0;resizeParent=1;resizeParentMax=0;resizeLast=0;collapsible=1;marginBottom=0;whiteSpace=wrap;html=1;" parent="WIyWlLk6GJQsqaUBKTNV-1" vertex="1">
          <mxGeometry x="1241" y="300" width="230" height="86" as="geometry" />
        </mxCell>
        <mxCell id="NpN_3oIsCTOHhuz7XpSE-29" value="+ field: type" style="text;strokeColor=none;fillColor=none;align=left;verticalAlign=top;spacingLeft=4;spacingRight=4;overflow=hidden;rotatable=0;points=[[0,0.5],[1,0.5]];portConstraint=eastwest;whiteSpace=wrap;html=1;" parent="NpN_3oIsCTOHhuz7XpSE-28" vertex="1">
          <mxGeometry y="26" width="230" height="26" as="geometry" />
        </mxCell>
        <mxCell id="NpN_3oIsCTOHhuz7XpSE-30" value="" style="line;strokeWidth=1;fillColor=none;align=left;verticalAlign=middle;spacingTop=-1;spacingLeft=3;spacingRight=3;rotatable=0;labelPosition=right;points=[];portConstraint=eastwest;strokeColor=inherit;" parent="NpN_3oIsCTOHhuz7XpSE-28" vertex="1">
          <mxGeometry y="52" width="230" height="8" as="geometry" />
        </mxCell>
        <mxCell id="NpN_3oIsCTOHhuz7XpSE-31" value="+create():Command" style="text;strokeColor=none;fillColor=none;align=left;verticalAlign=top;spacingLeft=4;spacingRight=4;overflow=hidden;rotatable=0;points=[[0,0.5],[1,0.5]];portConstraint=eastwest;whiteSpace=wrap;html=1;" parent="NpN_3oIsCTOHhuz7XpSE-28" vertex="1">
          <mxGeometry y="60" width="230" height="26" as="geometry" />
        </mxCell>
        <mxCell id="NpN_3oIsCTOHhuz7XpSE-33" value="" style="endArrow=none;dashed=1;html=1;rounded=0;strokeWidth=2;" parent="WIyWlLk6GJQsqaUBKTNV-1" edge="1">
          <mxGeometry width="50" height="50" relative="1" as="geometry">
            <mxPoint x="-1680" y="520" as="sourcePoint" />
            <mxPoint x="1350" y="520" as="targetPoint" />
          </mxGeometry>
        </mxCell>
        <mxCell id="NpN_3oIsCTOHhuz7XpSE-34" value="" style="endArrow=none;dashed=1;html=1;rounded=0;entryX=0.5;entryY=1.041;entryDx=0;entryDy=0;entryPerimeter=0;strokeWidth=2;" parent="WIyWlLk6GJQsqaUBKTNV-1" edge="1">
          <mxGeometry width="50" height="50" relative="1" as="geometry">
            <mxPoint x="-1680" y="518.77" as="sourcePoint" />
            <mxPoint x="-1680" y="396" as="targetPoint" />
          </mxGeometry>
        </mxCell>
        <mxCell id="NpN_3oIsCTOHhuz7XpSE-36" value="" style="endArrow=none;dashed=1;html=1;rounded=0;strokeWidth=2;" parent="WIyWlLk6GJQsqaUBKTNV-1" target="NpN_3oIsCTOHhuz7XpSE-28" edge="1">
          <mxGeometry width="50" height="50" relative="1" as="geometry">
            <mxPoint x="1356" y="520" as="sourcePoint" />
            <mxPoint x="1356" y="373" as="targetPoint" />
          </mxGeometry>
        </mxCell>
        <mxCell id="NpN_3oIsCTOHhuz7XpSE-37" value="" style="endArrow=none;dashed=1;html=1;rounded=0;exitX=0.5;exitY=0;exitDx=0;exitDy=0;startArrow=block;startFill=0;endSize=6;startSize=15;strokeWidth=2;" parent="WIyWlLk6GJQsqaUBKTNV-1" source="0935TuHeCaS-1WZXopsR-4" edge="1">
          <mxGeometry width="50" height="50" relative="1" as="geometry">
            <mxPoint x="160" y="550" as="sourcePoint" />
            <mxPoint x="50" y="520" as="targetPoint" />
          </mxGeometry>
        </mxCell>
        <mxCell id="NpN_3oIsCTOHhuz7XpSE-38" value="" style="endArrow=none;dashed=1;html=1;rounded=0;strokeWidth=2;" parent="WIyWlLk6GJQsqaUBKTNV-1" target="0935TuHeCaS-1WZXopsR-29" edge="1">
          <mxGeometry width="50" height="50" relative="1" as="geometry">
            <mxPoint x="-1385" y="520" as="sourcePoint" />
            <mxPoint x="-1379" y="394" as="targetPoint" />
          </mxGeometry>
        </mxCell>
        <mxCell id="NpN_3oIsCTOHhuz7XpSE-39" value="" style="endArrow=none;dashed=1;html=1;rounded=0;entryX=0.497;entryY=0.977;entryDx=0;entryDy=0;entryPerimeter=0;strokeWidth=2;" parent="WIyWlLk6GJQsqaUBKTNV-1" target="NpN_3oIsCTOHhuz7XpSE-19" edge="1">
          <mxGeometry width="50" height="50" relative="1" as="geometry">
            <mxPoint x="-1101" y="520" as="sourcePoint" />
            <mxPoint x="-1030" y="490" as="targetPoint" />
          </mxGeometry>
        </mxCell>
        <mxCell id="NpN_3oIsCTOHhuz7XpSE-40" value="" style="endArrow=none;dashed=1;html=1;rounded=0;strokeWidth=2;" parent="WIyWlLk6GJQsqaUBKTNV-1" target="NpN_3oIsCTOHhuz7XpSE-4" edge="1">
          <mxGeometry width="50" height="50" relative="1" as="geometry">
            <mxPoint x="-806" y="520" as="sourcePoint" />
            <mxPoint x="-806" y="400" as="targetPoint" />
          </mxGeometry>
        </mxCell>
        <mxCell id="NpN_3oIsCTOHhuz7XpSE-41" value="" style="endArrow=none;dashed=1;html=1;rounded=0;strokeWidth=2;" parent="WIyWlLk6GJQsqaUBKTNV-1" target="0935TuHeCaS-1WZXopsR-17" edge="1">
          <mxGeometry width="50" height="50" relative="1" as="geometry">
            <mxPoint x="-537" y="520" as="sourcePoint" />
            <mxPoint x="-510" y="450" as="targetPoint" />
          </mxGeometry>
        </mxCell>
        <mxCell id="NpN_3oIsCTOHhuz7XpSE-42" value="" style="endArrow=none;dashed=1;html=1;rounded=0;strokeWidth=2;" parent="WIyWlLk6GJQsqaUBKTNV-1" target="0935TuHeCaS-1WZXopsR-21" edge="1">
          <mxGeometry width="50" height="50" relative="1" as="geometry">
            <mxPoint x="-255" y="520" as="sourcePoint" />
            <mxPoint x="-262" y="390" as="targetPoint" />
          </mxGeometry>
        </mxCell>
        <mxCell id="NpN_3oIsCTOHhuz7XpSE-43" value="" style="endArrow=none;dashed=1;html=1;rounded=0;strokeWidth=2;entryX=0.878;entryY=0.977;entryDx=0;entryDy=0;entryPerimeter=0;" parent="WIyWlLk6GJQsqaUBKTNV-1" edge="1">
          <mxGeometry width="50" height="50" relative="1" as="geometry">
            <mxPoint x="50" y="520.69" as="sourcePoint" />
            <mxPoint x="50.059999999999945" y="395.99999999999994" as="targetPoint" />
          </mxGeometry>
        </mxCell>
        <mxCell id="NpN_3oIsCTOHhuz7XpSE-44" value="" style="endArrow=none;dashed=1;html=1;rounded=0;strokeWidth=2;" parent="WIyWlLk6GJQsqaUBKTNV-1" target="NpN_3oIsCTOHhuz7XpSE-15" edge="1">
          <mxGeometry width="50" height="50" relative="1" as="geometry">
            <mxPoint x="335" y="520" as="sourcePoint" />
            <mxPoint x="380" y="450" as="targetPoint" />
          </mxGeometry>
        </mxCell>
        <mxCell id="NpN_3oIsCTOHhuz7XpSE-45" value="" style="endArrow=none;dashed=1;html=1;rounded=0;strokeWidth=2;" parent="WIyWlLk6GJQsqaUBKTNV-1" target="0935TuHeCaS-1WZXopsR-12" edge="1">
          <mxGeometry width="50" height="50" relative="1" as="geometry">
            <mxPoint x="580" y="520" as="sourcePoint" />
            <mxPoint x="630" y="450" as="targetPoint" />
          </mxGeometry>
        </mxCell>
        <mxCell id="NpN_3oIsCTOHhuz7XpSE-46" value="" style="endArrow=none;dashed=1;html=1;rounded=0;entryX=0.541;entryY=0.907;entryDx=0;entryDy=0;entryPerimeter=0;strokeWidth=2;" parent="WIyWlLk6GJQsqaUBKTNV-1" edge="1">
          <mxGeometry width="50" height="50" relative="1" as="geometry">
            <mxPoint x="775" y="521" as="sourcePoint" />
            <mxPoint x="774.56" y="394.21000000000004" as="targetPoint" />
          </mxGeometry>
        </mxCell>
        <mxCell id="NpN_3oIsCTOHhuz7XpSE-47" value="" style="endArrow=none;dashed=1;html=1;rounded=0;strokeWidth=2;" parent="WIyWlLk6GJQsqaUBKTNV-1" target="NpN_3oIsCTOHhuz7XpSE-27" edge="1">
          <mxGeometry width="50" height="50" relative="1" as="geometry">
            <mxPoint x="1045" y="520" as="sourcePoint" />
            <mxPoint x="1040" y="400" as="targetPoint" />
          </mxGeometry>
        </mxCell>
        <mxCell id="NpN_3oIsCTOHhuz7XpSE-48" value="ChangePlayerNameCommand" style="swimlane;fontStyle=1;align=center;verticalAlign=top;childLayout=stackLayout;horizontal=1;startSize=26;horizontalStack=0;resizeParent=1;resizeParentMax=0;resizeLast=0;collapsible=1;marginBottom=0;whiteSpace=wrap;html=1;" parent="WIyWlLk6GJQsqaUBKTNV-1" vertex="1">
          <mxGeometry x="-1785" y="-50" width="230" height="130" as="geometry" />
        </mxCell>
        <mxCell id="NpN_3oIsCTOHhuz7XpSE-49" value="- undoMemento" style="text;strokeColor=none;fillColor=none;align=left;verticalAlign=top;spacingLeft=4;spacingRight=4;overflow=hidden;rotatable=0;points=[[0,0.5],[1,0.5]];portConstraint=eastwest;whiteSpace=wrap;html=1;" parent="NpN_3oIsCTOHhuz7XpSE-48" vertex="1">
          <mxGeometry y="26" width="230" height="30" as="geometry" />
        </mxCell>
        <mxCell id="NpN_3oIsCTOHhuz7XpSE-50" value="" style="line;strokeWidth=1;fillColor=none;align=left;verticalAlign=middle;spacingTop=-1;spacingLeft=3;spacingRight=3;rotatable=0;labelPosition=right;points=[];portConstraint=eastwest;strokeColor=inherit;" parent="NpN_3oIsCTOHhuz7XpSE-48" vertex="1">
          <mxGeometry y="56" width="230" height="10" as="geometry" />
        </mxCell>
        <mxCell id="NpN_3oIsCTOHhuz7XpSE-51" value="+ execute() : void&lt;div&gt;+ undo() : void&lt;/div&gt;&lt;div&gt;+ redo() : void&lt;/div&gt;" style="text;strokeColor=none;fillColor=none;align=left;verticalAlign=top;spacingLeft=4;spacingRight=4;overflow=hidden;rotatable=0;points=[[0,0.5],[1,0.5]];portConstraint=eastwest;whiteSpace=wrap;html=1;" parent="NpN_3oIsCTOHhuz7XpSE-48" vertex="1">
          <mxGeometry y="66" width="230" height="64" as="geometry" />
        </mxCell>
        <mxCell id="NpN_3oIsCTOHhuz7XpSE-52" value="CreatePlayerCommand" style="swimlane;fontStyle=1;align=center;verticalAlign=top;childLayout=stackLayout;horizontal=1;startSize=26;horizontalStack=0;resizeParent=1;resizeParentMax=0;resizeLast=0;collapsible=1;marginBottom=0;whiteSpace=wrap;html=1;" parent="WIyWlLk6GJQsqaUBKTNV-1" vertex="1">
          <mxGeometry x="-1500" y="-50" width="230" height="130" as="geometry" />
        </mxCell>
        <mxCell id="NpN_3oIsCTOHhuz7XpSE-53" value="+ field: type" style="text;strokeColor=none;fillColor=none;align=left;verticalAlign=top;spacingLeft=4;spacingRight=4;overflow=hidden;rotatable=0;points=[[0,0.5],[1,0.5]];portConstraint=eastwest;whiteSpace=wrap;html=1;" parent="NpN_3oIsCTOHhuz7XpSE-52" vertex="1">
          <mxGeometry y="26" width="230" height="30" as="geometry" />
        </mxCell>
        <mxCell id="NpN_3oIsCTOHhuz7XpSE-54" value="" style="line;strokeWidth=1;fillColor=none;align=left;verticalAlign=middle;spacingTop=-1;spacingLeft=3;spacingRight=3;rotatable=0;labelPosition=right;points=[];portConstraint=eastwest;strokeColor=inherit;" parent="NpN_3oIsCTOHhuz7XpSE-52" vertex="1">
          <mxGeometry y="56" width="230" height="10" as="geometry" />
        </mxCell>
        <mxCell id="NpN_3oIsCTOHhuz7XpSE-55" value="+ execute() : void&lt;div&gt;&lt;div&gt;+ undo() : void&lt;/div&gt;&lt;div&gt;+ redo() : void&lt;/div&gt;&lt;/div&gt;" style="text;strokeColor=none;fillColor=none;align=left;verticalAlign=top;spacingLeft=4;spacingRight=4;overflow=hidden;rotatable=0;points=[[0,0.5],[1,0.5]];portConstraint=eastwest;whiteSpace=wrap;html=1;" parent="NpN_3oIsCTOHhuz7XpSE-52" vertex="1">
          <mxGeometry y="66" width="230" height="64" as="geometry" />
        </mxCell>
        <mxCell id="NpN_3oIsCTOHhuz7XpSE-56" value="SetCurrentPlayerCommand" style="swimlane;fontStyle=1;align=center;verticalAlign=top;childLayout=stackLayout;horizontal=1;startSize=26;horizontalStack=0;resizeParent=1;resizeParentMax=0;resizeLast=0;collapsible=1;marginBottom=0;whiteSpace=wrap;html=1;" parent="WIyWlLk6GJQsqaUBKTNV-1" vertex="1">
          <mxGeometry x="-1215" y="-50" width="230" height="130" as="geometry" />
        </mxCell>
        <mxCell id="NpN_3oIsCTOHhuz7XpSE-57" value="+ field: type" style="text;strokeColor=none;fillColor=none;align=left;verticalAlign=top;spacingLeft=4;spacingRight=4;overflow=hidden;rotatable=0;points=[[0,0.5],[1,0.5]];portConstraint=eastwest;whiteSpace=wrap;html=1;" parent="NpN_3oIsCTOHhuz7XpSE-56" vertex="1">
          <mxGeometry y="26" width="230" height="30" as="geometry" />
        </mxCell>
        <mxCell id="NpN_3oIsCTOHhuz7XpSE-58" value="" style="line;strokeWidth=1;fillColor=none;align=left;verticalAlign=middle;spacingTop=-1;spacingLeft=3;spacingRight=3;rotatable=0;labelPosition=right;points=[];portConstraint=eastwest;strokeColor=inherit;" parent="NpN_3oIsCTOHhuz7XpSE-56" vertex="1">
          <mxGeometry y="56" width="230" height="10" as="geometry" />
        </mxCell>
        <mxCell id="NpN_3oIsCTOHhuz7XpSE-59" value="+ execute() : void&lt;div&gt;&lt;div&gt;+ undo() : void&lt;/div&gt;&lt;div&gt;+ redo() : void&lt;/div&gt;&lt;/div&gt;" style="text;strokeColor=none;fillColor=none;align=left;verticalAlign=top;spacingLeft=4;spacingRight=4;overflow=hidden;rotatable=0;points=[[0,0.5],[1,0.5]];portConstraint=eastwest;whiteSpace=wrap;html=1;" parent="NpN_3oIsCTOHhuz7XpSE-56" vertex="1">
          <mxGeometry y="66" width="230" height="64" as="geometry" />
        </mxCell>
        <mxCell id="NpN_3oIsCTOHhuz7XpSE-60" value="AddHeroCommand" style="swimlane;fontStyle=1;align=center;verticalAlign=top;childLayout=stackLayout;horizontal=1;startSize=26;horizontalStack=0;resizeParent=1;resizeParentMax=0;resizeLast=0;collapsible=1;marginBottom=0;whiteSpace=wrap;html=1;" parent="WIyWlLk6GJQsqaUBKTNV-1" vertex="1">
          <mxGeometry x="-920" y="-50" width="230" height="130" as="geometry" />
        </mxCell>
        <mxCell id="NpN_3oIsCTOHhuz7XpSE-61" value="+ field: type" style="text;strokeColor=none;fillColor=none;align=left;verticalAlign=top;spacingLeft=4;spacingRight=4;overflow=hidden;rotatable=0;points=[[0,0.5],[1,0.5]];portConstraint=eastwest;whiteSpace=wrap;html=1;" parent="NpN_3oIsCTOHhuz7XpSE-60" vertex="1">
          <mxGeometry y="26" width="230" height="30" as="geometry" />
        </mxCell>
        <mxCell id="NpN_3oIsCTOHhuz7XpSE-62" value="" style="line;strokeWidth=1;fillColor=none;align=left;verticalAlign=middle;spacingTop=-1;spacingLeft=3;spacingRight=3;rotatable=0;labelPosition=right;points=[];portConstraint=eastwest;strokeColor=inherit;" parent="NpN_3oIsCTOHhuz7XpSE-60" vertex="1">
          <mxGeometry y="56" width="230" height="10" as="geometry" />
        </mxCell>
        <mxCell id="NpN_3oIsCTOHhuz7XpSE-63" value="+ execute() : void&lt;div&gt;&lt;div&gt;+ undo() : void&lt;/div&gt;&lt;div&gt;+ redo() : void&lt;/div&gt;&lt;/div&gt;" style="text;strokeColor=none;fillColor=none;align=left;verticalAlign=top;spacingLeft=4;spacingRight=4;overflow=hidden;rotatable=0;points=[[0,0.5],[1,0.5]];portConstraint=eastwest;whiteSpace=wrap;html=1;" parent="NpN_3oIsCTOHhuz7XpSE-60" vertex="1">
          <mxGeometry y="66" width="230" height="64" as="geometry" />
        </mxCell>
        <mxCell id="NpN_3oIsCTOHhuz7XpSE-64" value="RemoveHeroCommand" style="swimlane;fontStyle=1;align=center;verticalAlign=top;childLayout=stackLayout;horizontal=1;startSize=26;horizontalStack=0;resizeParent=1;resizeParentMax=0;resizeLast=0;collapsible=1;marginBottom=0;whiteSpace=wrap;html=1;" parent="WIyWlLk6GJQsqaUBKTNV-1" vertex="1">
          <mxGeometry x="-650" y="-50" width="230" height="130" as="geometry" />
        </mxCell>
        <mxCell id="NpN_3oIsCTOHhuz7XpSE-65" value="+ field: type" style="text;strokeColor=none;fillColor=none;align=left;verticalAlign=top;spacingLeft=4;spacingRight=4;overflow=hidden;rotatable=0;points=[[0,0.5],[1,0.5]];portConstraint=eastwest;whiteSpace=wrap;html=1;" parent="NpN_3oIsCTOHhuz7XpSE-64" vertex="1">
          <mxGeometry y="26" width="230" height="30" as="geometry" />
        </mxCell>
        <mxCell id="NpN_3oIsCTOHhuz7XpSE-66" value="" style="line;strokeWidth=1;fillColor=none;align=left;verticalAlign=middle;spacingTop=-1;spacingLeft=3;spacingRight=3;rotatable=0;labelPosition=right;points=[];portConstraint=eastwest;strokeColor=inherit;" parent="NpN_3oIsCTOHhuz7XpSE-64" vertex="1">
          <mxGeometry y="56" width="230" height="10" as="geometry" />
        </mxCell>
        <mxCell id="NpN_3oIsCTOHhuz7XpSE-67" value="+ execute() : void&lt;div&gt;&lt;div&gt;+ undo() : void&lt;/div&gt;&lt;div&gt;+ redo() : void&lt;/div&gt;&lt;/div&gt;" style="text;strokeColor=none;fillColor=none;align=left;verticalAlign=top;spacingLeft=4;spacingRight=4;overflow=hidden;rotatable=0;points=[[0,0.5],[1,0.5]];portConstraint=eastwest;whiteSpace=wrap;html=1;" parent="NpN_3oIsCTOHhuz7XpSE-64" vertex="1">
          <mxGeometry y="66" width="230" height="64" as="geometry" />
        </mxCell>
        <mxCell id="NpN_3oIsCTOHhuz7XpSE-68" value="CallHeroSkillCommand" style="swimlane;fontStyle=1;align=center;verticalAlign=top;childLayout=stackLayout;horizontal=1;startSize=26;horizontalStack=0;resizeParent=1;resizeParentMax=0;resizeLast=0;collapsible=1;marginBottom=0;whiteSpace=wrap;html=1;" parent="WIyWlLk6GJQsqaUBKTNV-1" vertex="1">
          <mxGeometry x="-370" y="-50" width="230" height="130" as="geometry" />
        </mxCell>
        <mxCell id="NpN_3oIsCTOHhuz7XpSE-69" value="- undoMemento : Memento&lt;div&gt;- redoMemento : Memento&lt;/div&gt;" style="text;strokeColor=none;fillColor=none;align=left;verticalAlign=top;spacingLeft=4;spacingRight=4;overflow=hidden;rotatable=0;points=[[0,0.5],[1,0.5]];portConstraint=eastwest;whiteSpace=wrap;html=1;" parent="NpN_3oIsCTOHhuz7XpSE-68" vertex="1">
          <mxGeometry y="26" width="230" height="30" as="geometry" />
        </mxCell>
        <mxCell id="NpN_3oIsCTOHhuz7XpSE-70" value="" style="line;strokeWidth=1;fillColor=none;align=left;verticalAlign=middle;spacingTop=-1;spacingLeft=3;spacingRight=3;rotatable=0;labelPosition=right;points=[];portConstraint=eastwest;strokeColor=inherit;" parent="NpN_3oIsCTOHhuz7XpSE-68" vertex="1">
          <mxGeometry y="56" width="230" height="10" as="geometry" />
        </mxCell>
        <mxCell id="NpN_3oIsCTOHhuz7XpSE-71" value="+ execute() : void&lt;div&gt;&lt;div&gt;+ undo() : void&lt;/div&gt;&lt;div&gt;+ redo() : void&lt;/div&gt;&lt;/div&gt;" style="text;strokeColor=none;fillColor=none;align=left;verticalAlign=top;spacingLeft=4;spacingRight=4;overflow=hidden;rotatable=0;points=[[0,0.5],[1,0.5]];portConstraint=eastwest;whiteSpace=wrap;html=1;" parent="NpN_3oIsCTOHhuz7XpSE-68" vertex="1">
          <mxGeometry y="66" width="230" height="64" as="geometry" />
        </mxCell>
        <mxCell id="NpN_3oIsCTOHhuz7XpSE-72" value="ShowPlayersDetailsCommand" style="swimlane;fontStyle=1;align=center;verticalAlign=top;childLayout=stackLayout;horizontal=1;startSize=26;horizontalStack=0;resizeParent=1;resizeParentMax=0;resizeLast=0;collapsible=1;marginBottom=0;whiteSpace=wrap;html=1;" parent="WIyWlLk6GJQsqaUBKTNV-1" vertex="1">
          <mxGeometry x="-60" y="-50" width="230" height="130" as="geometry" />
        </mxCell>
        <mxCell id="NpN_3oIsCTOHhuz7XpSE-73" value="+ field: type" style="text;strokeColor=none;fillColor=none;align=left;verticalAlign=top;spacingLeft=4;spacingRight=4;overflow=hidden;rotatable=0;points=[[0,0.5],[1,0.5]];portConstraint=eastwest;whiteSpace=wrap;html=1;" parent="NpN_3oIsCTOHhuz7XpSE-72" vertex="1">
          <mxGeometry y="26" width="230" height="30" as="geometry" />
        </mxCell>
        <mxCell id="NpN_3oIsCTOHhuz7XpSE-74" value="" style="line;strokeWidth=1;fillColor=none;align=left;verticalAlign=middle;spacingTop=-1;spacingLeft=3;spacingRight=3;rotatable=0;labelPosition=right;points=[];portConstraint=eastwest;strokeColor=inherit;" parent="NpN_3oIsCTOHhuz7XpSE-72" vertex="1">
          <mxGeometry y="56" width="230" height="10" as="geometry" />
        </mxCell>
        <mxCell id="NpN_3oIsCTOHhuz7XpSE-75" value="+ execute() : void&lt;div&gt;&lt;div&gt;+ undo() : void&lt;/div&gt;&lt;div&gt;+ redo() : void&lt;/div&gt;&lt;/div&gt;" style="text;strokeColor=none;fillColor=none;align=left;verticalAlign=top;spacingLeft=4;spacingRight=4;overflow=hidden;rotatable=0;points=[[0,0.5],[1,0.5]];portConstraint=eastwest;whiteSpace=wrap;html=1;" parent="NpN_3oIsCTOHhuz7XpSE-72" vertex="1">
          <mxGeometry y="66" width="230" height="64" as="geometry" />
        </mxCell>
        <mxCell id="NpN_3oIsCTOHhuz7XpSE-76" value="ShowAllPlayerCommand" style="swimlane;fontStyle=1;align=center;verticalAlign=top;childLayout=stackLayout;horizontal=1;startSize=26;horizontalStack=0;resizeParent=1;resizeParentMax=0;resizeLast=0;collapsible=1;marginBottom=0;whiteSpace=wrap;html=1;" parent="WIyWlLk6GJQsqaUBKTNV-1" vertex="1">
          <mxGeometry x="220" y="-50" width="230" height="130" as="geometry" />
        </mxCell>
        <mxCell id="NpN_3oIsCTOHhuz7XpSE-77" value="+ field: type" style="text;strokeColor=none;fillColor=none;align=left;verticalAlign=top;spacingLeft=4;spacingRight=4;overflow=hidden;rotatable=0;points=[[0,0.5],[1,0.5]];portConstraint=eastwest;whiteSpace=wrap;html=1;" parent="NpN_3oIsCTOHhuz7XpSE-76" vertex="1">
          <mxGeometry y="26" width="230" height="30" as="geometry" />
        </mxCell>
        <mxCell id="NpN_3oIsCTOHhuz7XpSE-78" value="" style="line;strokeWidth=1;fillColor=none;align=left;verticalAlign=middle;spacingTop=-1;spacingLeft=3;spacingRight=3;rotatable=0;labelPosition=right;points=[];portConstraint=eastwest;strokeColor=inherit;" parent="NpN_3oIsCTOHhuz7XpSE-76" vertex="1">
          <mxGeometry y="56" width="230" height="10" as="geometry" />
        </mxCell>
        <mxCell id="NpN_3oIsCTOHhuz7XpSE-79" value="+execute() : void&lt;div&gt;&lt;div&gt;+ undo() : void&lt;/div&gt;&lt;div&gt;+ redo() : void&lt;/div&gt;&lt;/div&gt;" style="text;strokeColor=none;fillColor=none;align=left;verticalAlign=top;spacingLeft=4;spacingRight=4;overflow=hidden;rotatable=0;points=[[0,0.5],[1,0.5]];portConstraint=eastwest;whiteSpace=wrap;html=1;" parent="NpN_3oIsCTOHhuz7XpSE-76" vertex="1">
          <mxGeometry y="66" width="230" height="64" as="geometry" />
        </mxCell>
        <mxCell id="NpN_3oIsCTOHhuz7XpSE-80" value="UndoCommand" style="swimlane;fontStyle=1;align=center;verticalAlign=top;childLayout=stackLayout;horizontal=1;startSize=26;horizontalStack=0;resizeParent=1;resizeParentMax=0;resizeLast=0;collapsible=1;marginBottom=0;whiteSpace=wrap;html=1;" parent="WIyWlLk6GJQsqaUBKTNV-1" vertex="1">
          <mxGeometry x="510" y="-50" width="140" height="130" as="geometry" />
        </mxCell>
        <mxCell id="NpN_3oIsCTOHhuz7XpSE-81" value="+ field: type" style="text;strokeColor=none;fillColor=none;align=left;verticalAlign=top;spacingLeft=4;spacingRight=4;overflow=hidden;rotatable=0;points=[[0,0.5],[1,0.5]];portConstraint=eastwest;whiteSpace=wrap;html=1;" parent="NpN_3oIsCTOHhuz7XpSE-80" vertex="1">
          <mxGeometry y="26" width="140" height="30" as="geometry" />
        </mxCell>
        <mxCell id="NpN_3oIsCTOHhuz7XpSE-82" value="" style="line;strokeWidth=1;fillColor=none;align=left;verticalAlign=middle;spacingTop=-1;spacingLeft=3;spacingRight=3;rotatable=0;labelPosition=right;points=[];portConstraint=eastwest;strokeColor=inherit;" parent="NpN_3oIsCTOHhuz7XpSE-80" vertex="1">
          <mxGeometry y="56" width="140" height="10" as="geometry" />
        </mxCell>
        <mxCell id="NpN_3oIsCTOHhuz7XpSE-83" value="+execute() : void&lt;div&gt;&lt;div&gt;+ undo() : void&lt;/div&gt;&lt;div&gt;+ redo() : void&lt;/div&gt;&lt;/div&gt;" style="text;strokeColor=none;fillColor=none;align=left;verticalAlign=top;spacingLeft=4;spacingRight=4;overflow=hidden;rotatable=0;points=[[0,0.5],[1,0.5]];portConstraint=eastwest;whiteSpace=wrap;html=1;" parent="NpN_3oIsCTOHhuz7XpSE-80" vertex="1">
          <mxGeometry y="66" width="140" height="64" as="geometry" />
        </mxCell>
        <mxCell id="NpN_3oIsCTOHhuz7XpSE-85" value="RedoCommand" style="swimlane;fontStyle=1;align=center;verticalAlign=top;childLayout=stackLayout;horizontal=1;startSize=26;horizontalStack=0;resizeParent=1;resizeParentMax=0;resizeLast=0;collapsible=1;marginBottom=0;whiteSpace=wrap;html=1;" parent="WIyWlLk6GJQsqaUBKTNV-1" vertex="1">
          <mxGeometry x="710" y="-50" width="140" height="130" as="geometry" />
        </mxCell>
        <mxCell id="NpN_3oIsCTOHhuz7XpSE-86" value="+ field: type" style="text;strokeColor=none;fillColor=none;align=left;verticalAlign=top;spacingLeft=4;spacingRight=4;overflow=hidden;rotatable=0;points=[[0,0.5],[1,0.5]];portConstraint=eastwest;whiteSpace=wrap;html=1;" parent="NpN_3oIsCTOHhuz7XpSE-85" vertex="1">
          <mxGeometry y="26" width="140" height="30" as="geometry" />
        </mxCell>
        <mxCell id="NpN_3oIsCTOHhuz7XpSE-87" value="" style="line;strokeWidth=1;fillColor=none;align=left;verticalAlign=middle;spacingTop=-1;spacingLeft=3;spacingRight=3;rotatable=0;labelPosition=right;points=[];portConstraint=eastwest;strokeColor=inherit;" parent="NpN_3oIsCTOHhuz7XpSE-85" vertex="1">
          <mxGeometry y="56" width="140" height="10" as="geometry" />
        </mxCell>
        <mxCell id="NpN_3oIsCTOHhuz7XpSE-88" value="+execute() : void&lt;div&gt;&lt;div&gt;+ undo() : void&lt;/div&gt;&lt;div&gt;+ redo() : void&lt;/div&gt;&lt;/div&gt;" style="text;strokeColor=none;fillColor=none;align=left;verticalAlign=top;spacingLeft=4;spacingRight=4;overflow=hidden;rotatable=0;points=[[0,0.5],[1,0.5]];portConstraint=eastwest;whiteSpace=wrap;html=1;" parent="NpN_3oIsCTOHhuz7XpSE-85" vertex="1">
          <mxGeometry y="66" width="140" height="64" as="geometry" />
        </mxCell>
        <mxCell id="NpN_3oIsCTOHhuz7XpSE-89" value="ShowUndoRedoListCommand" style="swimlane;fontStyle=1;align=center;verticalAlign=top;childLayout=stackLayout;horizontal=1;startSize=26;horizontalStack=0;resizeParent=1;resizeParentMax=0;resizeLast=0;collapsible=1;marginBottom=0;whiteSpace=wrap;html=1;" parent="WIyWlLk6GJQsqaUBKTNV-1" vertex="1">
          <mxGeometry x="930" y="-50" width="230" height="130" as="geometry" />
        </mxCell>
        <mxCell id="NpN_3oIsCTOHhuz7XpSE-90" value="+ field: type" style="text;strokeColor=none;fillColor=none;align=left;verticalAlign=top;spacingLeft=4;spacingRight=4;overflow=hidden;rotatable=0;points=[[0,0.5],[1,0.5]];portConstraint=eastwest;whiteSpace=wrap;html=1;" parent="NpN_3oIsCTOHhuz7XpSE-89" vertex="1">
          <mxGeometry y="26" width="230" height="30" as="geometry" />
        </mxCell>
        <mxCell id="NpN_3oIsCTOHhuz7XpSE-91" value="" style="line;strokeWidth=1;fillColor=none;align=left;verticalAlign=middle;spacingTop=-1;spacingLeft=3;spacingRight=3;rotatable=0;labelPosition=right;points=[];portConstraint=eastwest;strokeColor=inherit;" parent="NpN_3oIsCTOHhuz7XpSE-89" vertex="1">
          <mxGeometry y="56" width="230" height="10" as="geometry" />
        </mxCell>
        <mxCell id="NpN_3oIsCTOHhuz7XpSE-92" value="+execute() : void&lt;div&gt;&lt;div&gt;+ undo() : void&lt;/div&gt;&lt;div&gt;+ redo() : void&lt;/div&gt;&lt;/div&gt;" style="text;strokeColor=none;fillColor=none;align=left;verticalAlign=top;spacingLeft=4;spacingRight=4;overflow=hidden;rotatable=0;points=[[0,0.5],[1,0.5]];portConstraint=eastwest;whiteSpace=wrap;html=1;" parent="NpN_3oIsCTOHhuz7XpSE-89" vertex="1">
          <mxGeometry y="66" width="230" height="64" as="geometry" />
        </mxCell>
        <mxCell id="NpN_3oIsCTOHhuz7XpSE-93" value="ExitCommand" style="swimlane;fontStyle=1;align=center;verticalAlign=top;childLayout=stackLayout;horizontal=1;startSize=26;horizontalStack=0;resizeParent=1;resizeParentMax=0;resizeLast=0;collapsible=1;marginBottom=0;whiteSpace=wrap;html=1;" parent="WIyWlLk6GJQsqaUBKTNV-1" vertex="1">
          <mxGeometry x="1241" y="-50" width="230" height="130" as="geometry" />
        </mxCell>
        <mxCell id="NpN_3oIsCTOHhuz7XpSE-94" value="+ field: type" style="text;strokeColor=none;fillColor=none;align=left;verticalAlign=top;spacingLeft=4;spacingRight=4;overflow=hidden;rotatable=0;points=[[0,0.5],[1,0.5]];portConstraint=eastwest;whiteSpace=wrap;html=1;" parent="NpN_3oIsCTOHhuz7XpSE-93" vertex="1">
          <mxGeometry y="26" width="230" height="30" as="geometry" />
        </mxCell>
        <mxCell id="NpN_3oIsCTOHhuz7XpSE-95" value="" style="line;strokeWidth=1;fillColor=none;align=left;verticalAlign=middle;spacingTop=-1;spacingLeft=3;spacingRight=3;rotatable=0;labelPosition=right;points=[];portConstraint=eastwest;strokeColor=inherit;" parent="NpN_3oIsCTOHhuz7XpSE-93" vertex="1">
          <mxGeometry y="56" width="230" height="10" as="geometry" />
        </mxCell>
        <mxCell id="NpN_3oIsCTOHhuz7XpSE-96" value="+execute() : void&lt;div&gt;&lt;div&gt;+ undo() : void&lt;/div&gt;&lt;div&gt;+ redo() : void&lt;/div&gt;&lt;/div&gt;" style="text;strokeColor=none;fillColor=none;align=left;verticalAlign=top;spacingLeft=4;spacingRight=4;overflow=hidden;rotatable=0;points=[[0,0.5],[1,0.5]];portConstraint=eastwest;whiteSpace=wrap;html=1;" parent="NpN_3oIsCTOHhuz7XpSE-93" vertex="1">
          <mxGeometry y="66" width="230" height="64" as="geometry" />
        </mxCell>
        <mxCell id="NpN_3oIsCTOHhuz7XpSE-130" value="&amp;lt;&amp;lt;use&amp;gt;&amp;gt;" style="text;align=center;fontStyle=1;verticalAlign=middle;spacingLeft=3;spacingRight=3;strokeColor=none;rotatable=0;points=[[0,0.5],[1,0.5]];portConstraint=eastwest;html=1;fontSize=20;" parent="WIyWlLk6GJQsqaUBKTNV-1" vertex="1">
          <mxGeometry x="10" y="710" width="80" height="26" as="geometry" />
        </mxCell>
        <mxCell id="NpN_3oIsCTOHhuz7XpSE-131" value="Command" style="swimlane;fontStyle=1;align=center;verticalAlign=top;childLayout=stackLayout;horizontal=1;startSize=26;horizontalStack=0;resizeParent=1;resizeParentMax=0;resizeLast=0;collapsible=1;marginBottom=0;whiteSpace=wrap;html=1;" parent="WIyWlLk6GJQsqaUBKTNV-1" vertex="1">
          <mxGeometry x="-25" y="-550" width="160" height="110" as="geometry" />
        </mxCell>
        <mxCell id="NpN_3oIsCTOHhuz7XpSE-132" value="+ field: type" style="text;strokeColor=none;fillColor=none;align=left;verticalAlign=top;spacingLeft=4;spacingRight=4;overflow=hidden;rotatable=0;points=[[0,0.5],[1,0.5]];portConstraint=eastwest;whiteSpace=wrap;html=1;" parent="NpN_3oIsCTOHhuz7XpSE-131" vertex="1">
          <mxGeometry y="26" width="160" height="26" as="geometry" />
        </mxCell>
        <mxCell id="NpN_3oIsCTOHhuz7XpSE-133" value="" style="line;strokeWidth=1;fillColor=none;align=left;verticalAlign=middle;spacingTop=-1;spacingLeft=3;spacingRight=3;rotatable=0;labelPosition=right;points=[];portConstraint=eastwest;strokeColor=inherit;" parent="NpN_3oIsCTOHhuz7XpSE-131" vertex="1">
          <mxGeometry y="52" width="160" height="8" as="geometry" />
        </mxCell>
        <mxCell id="NpN_3oIsCTOHhuz7XpSE-134" value="+execute() : void&lt;div&gt;+undo() : void&lt;/div&gt;&lt;div&gt;+redo() : void&lt;/div&gt;" style="text;strokeColor=none;fillColor=none;align=left;verticalAlign=top;spacingLeft=4;spacingRight=4;overflow=hidden;rotatable=0;points=[[0,0.5],[1,0.5]];portConstraint=eastwest;whiteSpace=wrap;html=1;" parent="NpN_3oIsCTOHhuz7XpSE-131" vertex="1">
          <mxGeometry y="60" width="160" height="50" as="geometry" />
        </mxCell>
        <mxCell id="NpN_3oIsCTOHhuz7XpSE-135" value="" style="endArrow=none;dashed=1;html=1;rounded=0;strokeWidth=2;" parent="WIyWlLk6GJQsqaUBKTNV-1" edge="1">
          <mxGeometry width="50" height="50" relative="1" as="geometry">
            <mxPoint x="-1670" y="-300" as="sourcePoint" />
            <mxPoint x="1360" y="-300" as="targetPoint" />
          </mxGeometry>
        </mxCell>
        <mxCell id="NpN_3oIsCTOHhuz7XpSE-136" value="" style="endArrow=block;dashed=1;html=1;rounded=0;strokeWidth=2;endFill=0;endSize=15;entryX=0.502;entryY=0.879;entryDx=0;entryDy=0;entryPerimeter=0;" parent="WIyWlLk6GJQsqaUBKTNV-1" target="NpN_3oIsCTOHhuz7XpSE-134" edge="1">
          <mxGeometry width="50" height="50" relative="1" as="geometry">
            <mxPoint x="55" y="-300" as="sourcePoint" />
            <mxPoint x="60" y="-500" as="targetPoint" />
          </mxGeometry>
        </mxCell>
        <mxCell id="NpN_3oIsCTOHhuz7XpSE-137" value="" style="endArrow=none;dashed=1;html=1;rounded=0;exitX=0.5;exitY=0;exitDx=0;exitDy=0;strokeWidth=2;" parent="WIyWlLk6GJQsqaUBKTNV-1" source="NpN_3oIsCTOHhuz7XpSE-48" edge="1">
          <mxGeometry width="50" height="50" relative="1" as="geometry">
            <mxPoint x="-1610" y="20" as="sourcePoint" />
            <mxPoint x="-1670" y="-300" as="targetPoint" />
          </mxGeometry>
        </mxCell>
        <mxCell id="NpN_3oIsCTOHhuz7XpSE-138" value="" style="endArrow=none;dashed=1;html=1;rounded=0;exitX=0.5;exitY=0;exitDx=0;exitDy=0;strokeWidth=2;" parent="WIyWlLk6GJQsqaUBKTNV-1" edge="1">
          <mxGeometry width="50" height="50" relative="1" as="geometry">
            <mxPoint x="-1385.71" y="-50" as="sourcePoint" />
            <mxPoint x="-1385.71" y="-300" as="targetPoint" />
          </mxGeometry>
        </mxCell>
        <mxCell id="NpN_3oIsCTOHhuz7XpSE-139" value="" style="endArrow=none;dashed=1;html=1;rounded=0;exitX=0.5;exitY=0;exitDx=0;exitDy=0;strokeWidth=2;" parent="WIyWlLk6GJQsqaUBKTNV-1" edge="1">
          <mxGeometry width="50" height="50" relative="1" as="geometry">
            <mxPoint x="-1100.71" y="-50" as="sourcePoint" />
            <mxPoint x="-1100.71" y="-300" as="targetPoint" />
          </mxGeometry>
        </mxCell>
        <mxCell id="NpN_3oIsCTOHhuz7XpSE-140" value="" style="endArrow=none;dashed=1;html=1;rounded=0;exitX=0.5;exitY=0;exitDx=0;exitDy=0;strokeWidth=2;" parent="WIyWlLk6GJQsqaUBKTNV-1" edge="1">
          <mxGeometry width="50" height="50" relative="1" as="geometry">
            <mxPoint x="-810" y="-50" as="sourcePoint" />
            <mxPoint x="-810" y="-300" as="targetPoint" />
          </mxGeometry>
        </mxCell>
        <mxCell id="NpN_3oIsCTOHhuz7XpSE-141" value="" style="endArrow=none;dashed=1;html=1;rounded=0;exitX=0.5;exitY=0;exitDx=0;exitDy=0;strokeWidth=2;" parent="WIyWlLk6GJQsqaUBKTNV-1" edge="1">
          <mxGeometry width="50" height="50" relative="1" as="geometry">
            <mxPoint x="-535.71" y="-50" as="sourcePoint" />
            <mxPoint x="-535.71" y="-300" as="targetPoint" />
          </mxGeometry>
        </mxCell>
        <mxCell id="NpN_3oIsCTOHhuz7XpSE-142" value="" style="endArrow=none;dashed=1;html=1;rounded=0;exitX=0.5;exitY=0;exitDx=0;exitDy=0;strokeWidth=2;" parent="WIyWlLk6GJQsqaUBKTNV-1" edge="1">
          <mxGeometry width="50" height="50" relative="1" as="geometry">
            <mxPoint x="-255.70999999999998" y="-50" as="sourcePoint" />
            <mxPoint x="-255.70999999999998" y="-300" as="targetPoint" />
          </mxGeometry>
        </mxCell>
        <mxCell id="NpN_3oIsCTOHhuz7XpSE-143" value="" style="endArrow=none;dashed=1;html=1;rounded=0;exitX=0.5;exitY=0;exitDx=0;exitDy=0;strokeWidth=2;" parent="WIyWlLk6GJQsqaUBKTNV-1" edge="1">
          <mxGeometry width="50" height="50" relative="1" as="geometry">
            <mxPoint x="54.29" y="-50" as="sourcePoint" />
            <mxPoint x="54.29" y="-300" as="targetPoint" />
          </mxGeometry>
        </mxCell>
        <mxCell id="NpN_3oIsCTOHhuz7XpSE-144" value="" style="endArrow=none;dashed=1;html=1;rounded=0;exitX=0.5;exitY=0;exitDx=0;exitDy=0;strokeWidth=2;" parent="WIyWlLk6GJQsqaUBKTNV-1" edge="1">
          <mxGeometry width="50" height="50" relative="1" as="geometry">
            <mxPoint x="334.29" y="-50" as="sourcePoint" />
            <mxPoint x="334.29" y="-300" as="targetPoint" />
          </mxGeometry>
        </mxCell>
        <mxCell id="NpN_3oIsCTOHhuz7XpSE-145" value="" style="endArrow=none;dashed=1;html=1;rounded=0;exitX=0.5;exitY=0;exitDx=0;exitDy=0;strokeWidth=2;" parent="WIyWlLk6GJQsqaUBKTNV-1" edge="1">
          <mxGeometry width="50" height="50" relative="1" as="geometry">
            <mxPoint x="579.29" y="-52" as="sourcePoint" />
            <mxPoint x="579.29" y="-302" as="targetPoint" />
          </mxGeometry>
        </mxCell>
        <mxCell id="NpN_3oIsCTOHhuz7XpSE-146" value="" style="endArrow=none;dashed=1;html=1;rounded=0;exitX=0.5;exitY=0;exitDx=0;exitDy=0;strokeWidth=2;" parent="WIyWlLk6GJQsqaUBKTNV-1" edge="1">
          <mxGeometry width="50" height="50" relative="1" as="geometry">
            <mxPoint x="779.29" y="-50" as="sourcePoint" />
            <mxPoint x="779.29" y="-300" as="targetPoint" />
          </mxGeometry>
        </mxCell>
        <mxCell id="NpN_3oIsCTOHhuz7XpSE-147" value="" style="endArrow=none;dashed=1;html=1;rounded=0;exitX=0.5;exitY=0;exitDx=0;exitDy=0;strokeWidth=2;" parent="WIyWlLk6GJQsqaUBKTNV-1" edge="1">
          <mxGeometry width="50" height="50" relative="1" as="geometry">
            <mxPoint x="1044.29" y="-50" as="sourcePoint" />
            <mxPoint x="1044.29" y="-300" as="targetPoint" />
          </mxGeometry>
        </mxCell>
        <mxCell id="NpN_3oIsCTOHhuz7XpSE-148" value="" style="endArrow=none;dashed=1;html=1;rounded=0;exitX=0.5;exitY=0;exitDx=0;exitDy=0;strokeWidth=2;" parent="WIyWlLk6GJQsqaUBKTNV-1" edge="1">
          <mxGeometry width="50" height="50" relative="1" as="geometry">
            <mxPoint x="1360" y="-50" as="sourcePoint" />
            <mxPoint x="1360" y="-300" as="targetPoint" />
          </mxGeometry>
        </mxCell>
        <mxCell id="NpN_3oIsCTOHhuz7XpSE-149" value="&lt;i&gt;Hero&lt;/i&gt;" style="swimlane;fontStyle=1;align=center;verticalAlign=top;childLayout=stackLayout;horizontal=1;startSize=26;horizontalStack=0;resizeParent=1;resizeParentMax=0;resizeLast=0;collapsible=1;marginBottom=0;whiteSpace=wrap;html=1;" parent="WIyWlLk6GJQsqaUBKTNV-1" vertex="1">
          <mxGeometry x="-1220" y="700" width="240" height="240" as="geometry" />
        </mxCell>
        <mxCell id="NpN_3oIsCTOHhuz7XpSE-150" value="- heroID : String&lt;div&gt;- heroName : String&lt;/div&gt;&lt;div&gt;- hp : int&lt;/div&gt;&lt;div&gt;- damage : int&lt;/div&gt;" style="text;strokeColor=none;fillColor=none;align=left;verticalAlign=top;spacingLeft=4;spacingRight=4;overflow=hidden;rotatable=0;points=[[0,0.5],[1,0.5]];portConstraint=eastwest;whiteSpace=wrap;html=1;" parent="NpN_3oIsCTOHhuz7XpSE-149" vertex="1">
          <mxGeometry y="26" width="240" height="64" as="geometry" />
        </mxCell>
        <mxCell id="NpN_3oIsCTOHhuz7XpSE-151" value="" style="line;strokeWidth=1;fillColor=none;align=left;verticalAlign=middle;spacingTop=-1;spacingLeft=3;spacingRight=3;rotatable=0;labelPosition=right;points=[];portConstraint=eastwest;strokeColor=inherit;" parent="NpN_3oIsCTOHhuz7XpSE-149" vertex="1">
          <mxGeometry y="90" width="240" height="8" as="geometry" />
        </mxCell>
        <mxCell id="NpN_3oIsCTOHhuz7XpSE-152" value="+ Hero(heroID : String, heroName : String)&lt;div&gt;+ getHeroID() : String&lt;/div&gt;&lt;div&gt;+ getHeroName() : String&lt;/div&gt;&lt;div&gt;+ setHeroName(heroName : String) : void&lt;/div&gt;&lt;div&gt;+ getHp() : int&lt;/div&gt;&lt;div&gt;+ setHp(hp : int) : void&lt;/div&gt;&lt;div&gt;+ getDamage(damage : int) : void&lt;/div&gt;&lt;div&gt;&lt;i&gt;+ callSkill() : void&lt;/i&gt;&lt;/div&gt;&lt;div&gt;&lt;i&gt;+ showHeroStatus() : void&lt;/i&gt;&lt;/div&gt;" style="text;strokeColor=none;fillColor=none;align=left;verticalAlign=top;spacingLeft=4;spacingRight=4;overflow=hidden;rotatable=0;points=[[0,0.5],[1,0.5]];portConstraint=eastwest;whiteSpace=wrap;html=1;" parent="NpN_3oIsCTOHhuz7XpSE-149" vertex="1">
          <mxGeometry y="98" width="240" height="142" as="geometry" />
        </mxCell>
        <mxCell id="NpN_3oIsCTOHhuz7XpSE-153" value="Player" style="swimlane;fontStyle=1;align=center;verticalAlign=top;childLayout=stackLayout;horizontal=1;startSize=26;horizontalStack=0;resizeParent=1;resizeParentMax=0;resizeLast=0;collapsible=1;marginBottom=0;whiteSpace=wrap;html=1;" parent="WIyWlLk6GJQsqaUBKTNV-1" vertex="1">
          <mxGeometry x="-1650" y="700" width="240" height="250" as="geometry" />
        </mxCell>
        <mxCell id="NpN_3oIsCTOHhuz7XpSE-154" value="- playerID : String&lt;div&gt;- playerName : String&lt;/div&gt;&lt;div&gt;- heros : ArrayList&amp;lt;Hero&amp;gt;&lt;/div&gt;" style="text;strokeColor=none;fillColor=none;align=left;verticalAlign=top;spacingLeft=4;spacingRight=4;overflow=hidden;rotatable=0;points=[[0,0.5],[1,0.5]];portConstraint=eastwest;whiteSpace=wrap;html=1;" parent="NpN_3oIsCTOHhuz7XpSE-153" vertex="1">
          <mxGeometry y="26" width="240" height="54" as="geometry" />
        </mxCell>
        <mxCell id="NpN_3oIsCTOHhuz7XpSE-155" value="" style="line;strokeWidth=1;fillColor=none;align=left;verticalAlign=middle;spacingTop=-1;spacingLeft=3;spacingRight=3;rotatable=0;labelPosition=right;points=[];portConstraint=eastwest;strokeColor=inherit;" parent="NpN_3oIsCTOHhuz7XpSE-153" vertex="1">
          <mxGeometry y="80" width="240" height="8" as="geometry" />
        </mxCell>
        <mxCell id="NpN_3oIsCTOHhuz7XpSE-156" value="+ Player(playerID : String, playerName : String)&lt;div&gt;+ getPlayerID() : String&lt;/div&gt;&lt;div&gt;+ getPlayerName() : String&lt;/div&gt;&lt;div&gt;+ setPlayerName(playerName : String) : void&lt;/div&gt;&lt;div&gt;+ addHero(hero : Hero) : void&lt;/div&gt;&lt;div&gt;+ removeHero(hero : Hero) : void&lt;/div&gt;&lt;div&gt;+ getHeros() : Vector&amp;lt;Hero&amp;gt;&lt;/div&gt;&lt;div&gt;+ showPlayerDetails() : void&lt;/div&gt;" style="text;strokeColor=none;fillColor=none;align=left;verticalAlign=top;spacingLeft=4;spacingRight=4;overflow=hidden;rotatable=0;points=[[0,0.5],[1,0.5]];portConstraint=eastwest;whiteSpace=wrap;html=1;" parent="NpN_3oIsCTOHhuz7XpSE-153" vertex="1">
          <mxGeometry y="88" width="240" height="162" as="geometry" />
        </mxCell>
        <mxCell id="NpN_3oIsCTOHhuz7XpSE-158" value="Warrior" style="swimlane;fontStyle=1;align=center;verticalAlign=top;childLayout=stackLayout;horizontal=1;startSize=26;horizontalStack=0;resizeParent=1;resizeParentMax=0;resizeLast=0;collapsible=1;marginBottom=0;whiteSpace=wrap;html=1;" parent="WIyWlLk6GJQsqaUBKTNV-1" vertex="1">
          <mxGeometry x="-1380" y="1070" width="240" height="170" as="geometry" />
        </mxCell>
        <mxCell id="NpN_3oIsCTOHhuz7XpSE-159" value="- defencePoint : int" style="text;strokeColor=none;fillColor=none;align=left;verticalAlign=top;spacingLeft=4;spacingRight=4;overflow=hidden;rotatable=0;points=[[0,0.5],[1,0.5]];portConstraint=eastwest;whiteSpace=wrap;html=1;" parent="NpN_3oIsCTOHhuz7XpSE-158" vertex="1">
          <mxGeometry y="26" width="240" height="24" as="geometry" />
        </mxCell>
        <mxCell id="NpN_3oIsCTOHhuz7XpSE-160" value="" style="line;strokeWidth=1;fillColor=none;align=left;verticalAlign=middle;spacingTop=-1;spacingLeft=3;spacingRight=3;rotatable=0;labelPosition=right;points=[];portConstraint=eastwest;strokeColor=inherit;" parent="NpN_3oIsCTOHhuz7XpSE-158" vertex="1">
          <mxGeometry y="50" width="240" height="8" as="geometry" />
        </mxCell>
        <mxCell id="NpN_3oIsCTOHhuz7XpSE-161" value="+ Warrior(heroID : String, heroName : String)&lt;div&gt;+ getDefencePoint() : int&lt;/div&gt;&lt;div&gt;+ setDefencePoint(defencePoint : int) : void&lt;/div&gt;&lt;div&gt;+ callSkill() : void&lt;/div&gt;&lt;div&gt;+ showHeroStatus() : void&lt;/div&gt;" style="text;strokeColor=none;fillColor=none;align=left;verticalAlign=top;spacingLeft=4;spacingRight=4;overflow=hidden;rotatable=0;points=[[0,0.5],[1,0.5]];portConstraint=eastwest;whiteSpace=wrap;html=1;" parent="NpN_3oIsCTOHhuz7XpSE-158" vertex="1">
          <mxGeometry y="58" width="240" height="112" as="geometry" />
        </mxCell>
        <mxCell id="NpN_3oIsCTOHhuz7XpSE-162" value="Warlock" style="swimlane;fontStyle=1;align=center;verticalAlign=top;childLayout=stackLayout;horizontal=1;startSize=26;horizontalStack=0;resizeParent=1;resizeParentMax=0;resizeLast=0;collapsible=1;marginBottom=0;whiteSpace=wrap;html=1;" parent="WIyWlLk6GJQsqaUBKTNV-1" vertex="1">
          <mxGeometry x="-1040" y="1070" width="240" height="170" as="geometry" />
        </mxCell>
        <mxCell id="NpN_3oIsCTOHhuz7XpSE-163" value="- mp : int" style="text;strokeColor=none;fillColor=none;align=left;verticalAlign=top;spacingLeft=4;spacingRight=4;overflow=hidden;rotatable=0;points=[[0,0.5],[1,0.5]];portConstraint=eastwest;whiteSpace=wrap;html=1;" parent="NpN_3oIsCTOHhuz7XpSE-162" vertex="1">
          <mxGeometry y="26" width="240" height="24" as="geometry" />
        </mxCell>
        <mxCell id="NpN_3oIsCTOHhuz7XpSE-164" value="" style="line;strokeWidth=1;fillColor=none;align=left;verticalAlign=middle;spacingTop=-1;spacingLeft=3;spacingRight=3;rotatable=0;labelPosition=right;points=[];portConstraint=eastwest;strokeColor=inherit;" parent="NpN_3oIsCTOHhuz7XpSE-162" vertex="1">
          <mxGeometry y="50" width="240" height="8" as="geometry" />
        </mxCell>
        <mxCell id="NpN_3oIsCTOHhuz7XpSE-165" value="+ Warlock(heroID : String, heroName: String)&lt;div&gt;+ getMp() : int&lt;/div&gt;&lt;div&gt;+ setMp(mp : int) :void&lt;/div&gt;&lt;div&gt;+ callSkill() ; void&lt;/div&gt;&lt;div&gt;+ showHeroStatus() : void&lt;/div&gt;" style="text;strokeColor=none;fillColor=none;align=left;verticalAlign=top;spacingLeft=4;spacingRight=4;overflow=hidden;rotatable=0;points=[[0,0.5],[1,0.5]];portConstraint=eastwest;whiteSpace=wrap;html=1;" parent="NpN_3oIsCTOHhuz7XpSE-162" vertex="1">
          <mxGeometry y="58" width="240" height="112" as="geometry" />
        </mxCell>
        <mxCell id="NpN_3oIsCTOHhuz7XpSE-166" value="" style="endArrow=none;dashed=1;html=1;rounded=0;strokeWidth=2;" parent="WIyWlLk6GJQsqaUBKTNV-1" edge="1">
          <mxGeometry width="50" height="50" relative="1" as="geometry">
            <mxPoint x="-1270" y="1070" as="sourcePoint" />
            <mxPoint x="-1270" y="990" as="targetPoint" />
          </mxGeometry>
        </mxCell>
        <mxCell id="NpN_3oIsCTOHhuz7XpSE-167" value="" style="endArrow=none;dashed=1;html=1;rounded=0;exitX=0.55;exitY=0.006;exitDx=0;exitDy=0;exitPerimeter=0;strokeWidth=2;" parent="WIyWlLk6GJQsqaUBKTNV-1" source="NpN_3oIsCTOHhuz7XpSE-162" edge="1">
          <mxGeometry width="50" height="50" relative="1" as="geometry">
            <mxPoint x="-915" y="1060" as="sourcePoint" />
            <mxPoint x="-908" y="990" as="targetPoint" />
          </mxGeometry>
        </mxCell>
        <mxCell id="NpN_3oIsCTOHhuz7XpSE-169" value="" style="endArrow=none;dashed=1;html=1;rounded=0;strokeWidth=2;" parent="WIyWlLk6GJQsqaUBKTNV-1" edge="1">
          <mxGeometry width="50" height="50" relative="1" as="geometry">
            <mxPoint x="-1270" y="990" as="sourcePoint" />
            <mxPoint x="-910" y="990" as="targetPoint" />
          </mxGeometry>
        </mxCell>
        <mxCell id="NpN_3oIsCTOHhuz7XpSE-170" value="" style="endArrow=block;dashed=1;html=1;rounded=0;strokeWidth=2;endFill=0;endSize=15;" parent="WIyWlLk6GJQsqaUBKTNV-1" edge="1">
          <mxGeometry width="50" height="50" relative="1" as="geometry">
            <mxPoint x="-1105" y="990" as="sourcePoint" />
            <mxPoint x="-1105" y="940" as="targetPoint" />
          </mxGeometry>
        </mxCell>
        <mxCell id="NpN_3oIsCTOHhuz7XpSE-171" value="" style="endArrow=openThin;html=1;rounded=0;entryX=0;entryY=0.371;entryDx=0;entryDy=0;entryPerimeter=0;endFill=0;startSize=6;endSize=15;strokeWidth=2;" parent="WIyWlLk6GJQsqaUBKTNV-1" target="NpN_3oIsCTOHhuz7XpSE-150" edge="1">
          <mxGeometry width="50" height="50" relative="1" as="geometry">
            <mxPoint x="-1410" y="750" as="sourcePoint" />
            <mxPoint x="-1200" y="750" as="targetPoint" />
          </mxGeometry>
        </mxCell>
        <mxCell id="NpN_3oIsCTOHhuz7XpSE-199" style="edgeStyle=orthogonalEdgeStyle;rounded=0;orthogonalLoop=1;jettySize=auto;html=1;exitX=0.5;exitY=0;exitDx=0;exitDy=0;strokeWidth=2;endArrow=openThin;endFill=0;endSize=15;dashed=1;" parent="WIyWlLk6GJQsqaUBKTNV-1" source="NpN_3oIsCTOHhuz7XpSE-172" target="NpN_3oIsCTOHhuz7XpSE-153" edge="1">
          <mxGeometry relative="1" as="geometry" />
        </mxCell>
        <mxCell id="NpN_3oIsCTOHhuz7XpSE-172" value="PlayerFactory" style="swimlane;fontStyle=1;align=center;verticalAlign=top;childLayout=stackLayout;horizontal=1;startSize=26;horizontalStack=0;resizeParent=1;resizeParentMax=0;resizeLast=0;collapsible=1;marginBottom=0;whiteSpace=wrap;html=1;" parent="WIyWlLk6GJQsqaUBKTNV-1" vertex="1">
          <mxGeometry x="-1627" y="1393" width="195" height="160" as="geometry" />
        </mxCell>
        <mxCell id="NpN_3oIsCTOHhuz7XpSE-173" value="- playerID : String&lt;div&gt;- playerName : String&lt;/div&gt;" style="text;strokeColor=none;fillColor=none;align=left;verticalAlign=top;spacingLeft=4;spacingRight=4;overflow=hidden;rotatable=0;points=[[0,0.5],[1,0.5]];portConstraint=eastwest;whiteSpace=wrap;html=1;" parent="NpN_3oIsCTOHhuz7XpSE-172" vertex="1">
          <mxGeometry y="26" width="195" height="44" as="geometry" />
        </mxCell>
        <mxCell id="NpN_3oIsCTOHhuz7XpSE-174" value="" style="line;strokeWidth=1;fillColor=none;align=left;verticalAlign=middle;spacingTop=-1;spacingLeft=3;spacingRight=3;rotatable=0;labelPosition=right;points=[];portConstraint=eastwest;strokeColor=inherit;" parent="NpN_3oIsCTOHhuz7XpSE-172" vertex="1">
          <mxGeometry y="70" width="195" height="8" as="geometry" />
        </mxCell>
        <mxCell id="NpN_3oIsCTOHhuz7XpSE-175" value="&lt;div&gt;+ PlayerFactory(playerID : String, playerName : String)&lt;/div&gt;+ createPlayer() : Player" style="text;strokeColor=none;fillColor=none;align=left;verticalAlign=top;spacingLeft=4;spacingRight=4;overflow=hidden;rotatable=0;points=[[0,0.5],[1,0.5]];portConstraint=eastwest;whiteSpace=wrap;html=1;" parent="NpN_3oIsCTOHhuz7XpSE-172" vertex="1">
          <mxGeometry y="78" width="195" height="82" as="geometry" />
        </mxCell>
        <mxCell id="NpN_3oIsCTOHhuz7XpSE-176" value="&lt;i&gt;HeroFactory&lt;/i&gt;" style="swimlane;fontStyle=1;align=center;verticalAlign=top;childLayout=stackLayout;horizontal=1;startSize=26;horizontalStack=0;resizeParent=1;resizeParentMax=0;resizeLast=0;collapsible=1;marginBottom=0;whiteSpace=wrap;html=1;" parent="WIyWlLk6GJQsqaUBKTNV-1" vertex="1">
          <mxGeometry x="-1170" y="1661" width="195" height="128" as="geometry" />
        </mxCell>
        <mxCell id="NpN_3oIsCTOHhuz7XpSE-177" value="- heroID : String&lt;div&gt;- heroName : String&lt;/div&gt;" style="text;strokeColor=none;fillColor=none;align=left;verticalAlign=top;spacingLeft=4;spacingRight=4;overflow=hidden;rotatable=0;points=[[0,0.5],[1,0.5]];portConstraint=eastwest;whiteSpace=wrap;html=1;" parent="NpN_3oIsCTOHhuz7XpSE-176" vertex="1">
          <mxGeometry y="26" width="195" height="34" as="geometry" />
        </mxCell>
        <mxCell id="NpN_3oIsCTOHhuz7XpSE-178" value="" style="line;strokeWidth=1;fillColor=none;align=left;verticalAlign=middle;spacingTop=-1;spacingLeft=3;spacingRight=3;rotatable=0;labelPosition=right;points=[];portConstraint=eastwest;strokeColor=inherit;" parent="NpN_3oIsCTOHhuz7XpSE-176" vertex="1">
          <mxGeometry y="60" width="195" height="8" as="geometry" />
        </mxCell>
        <mxCell id="NpN_3oIsCTOHhuz7XpSE-179" value="&lt;div&gt;+ HeroFactory(heroID : String, heroName : String)&lt;/div&gt;&lt;i&gt;+ createHero() : Hero&lt;/i&gt;" style="text;strokeColor=none;fillColor=none;align=left;verticalAlign=top;spacingLeft=4;spacingRight=4;overflow=hidden;rotatable=0;points=[[0,0.5],[1,0.5]];portConstraint=eastwest;whiteSpace=wrap;html=1;" parent="NpN_3oIsCTOHhuz7XpSE-176" vertex="1">
          <mxGeometry y="68" width="195" height="60" as="geometry" />
        </mxCell>
        <mxCell id="NpN_3oIsCTOHhuz7XpSE-180" value="WarriorFactory" style="swimlane;fontStyle=1;align=center;verticalAlign=top;childLayout=stackLayout;horizontal=1;startSize=26;horizontalStack=0;resizeParent=1;resizeParentMax=0;resizeLast=0;collapsible=1;marginBottom=0;whiteSpace=wrap;html=1;" parent="WIyWlLk6GJQsqaUBKTNV-1" vertex="1">
          <mxGeometry x="-1357.5" y="1400" width="195" height="140" as="geometry" />
        </mxCell>
        <mxCell id="NpN_3oIsCTOHhuz7XpSE-182" value="" style="line;strokeWidth=1;fillColor=none;align=left;verticalAlign=middle;spacingTop=-1;spacingLeft=3;spacingRight=3;rotatable=0;labelPosition=right;points=[];portConstraint=eastwest;strokeColor=inherit;" parent="NpN_3oIsCTOHhuz7XpSE-180" vertex="1">
          <mxGeometry y="26" width="195" height="34" as="geometry" />
        </mxCell>
        <mxCell id="NpN_3oIsCTOHhuz7XpSE-183" value="+ WarriorFactory(heroID : String,&lt;div&gt;heroName : String)&lt;/div&gt;&lt;div&gt;+ createHero() : Hero&lt;/div&gt;" style="text;strokeColor=none;fillColor=none;align=left;verticalAlign=top;spacingLeft=4;spacingRight=4;overflow=hidden;rotatable=0;points=[[0,0.5],[1,0.5]];portConstraint=eastwest;whiteSpace=wrap;html=1;" parent="NpN_3oIsCTOHhuz7XpSE-180" vertex="1">
          <mxGeometry y="60" width="195" height="80" as="geometry" />
        </mxCell>
        <mxCell id="NpN_3oIsCTOHhuz7XpSE-184" value="WarlockFactory" style="swimlane;fontStyle=1;align=center;verticalAlign=top;childLayout=stackLayout;horizontal=1;startSize=26;horizontalStack=0;resizeParent=1;resizeParentMax=0;resizeLast=0;collapsible=1;marginBottom=0;whiteSpace=wrap;html=1;" parent="WIyWlLk6GJQsqaUBKTNV-1" vertex="1">
          <mxGeometry x="-1017.5" y="1400" width="195" height="140" as="geometry" />
        </mxCell>
        <mxCell id="NpN_3oIsCTOHhuz7XpSE-186" value="" style="line;strokeWidth=1;fillColor=none;align=left;verticalAlign=middle;spacingTop=-1;spacingLeft=3;spacingRight=3;rotatable=0;labelPosition=right;points=[];portConstraint=eastwest;strokeColor=inherit;" parent="NpN_3oIsCTOHhuz7XpSE-184" vertex="1">
          <mxGeometry y="26" width="195" height="34" as="geometry" />
        </mxCell>
        <mxCell id="NpN_3oIsCTOHhuz7XpSE-187" value="+ WarlockFactory(heroID : String, heroName : String)&lt;div&gt;+ createHero() : Hero&lt;/div&gt;" style="text;strokeColor=none;fillColor=none;align=left;verticalAlign=top;spacingLeft=4;spacingRight=4;overflow=hidden;rotatable=0;points=[[0,0.5],[1,0.5]];portConstraint=eastwest;whiteSpace=wrap;html=1;" parent="NpN_3oIsCTOHhuz7XpSE-184" vertex="1">
          <mxGeometry y="60" width="195" height="80" as="geometry" />
        </mxCell>
        <mxCell id="NpN_3oIsCTOHhuz7XpSE-191" style="edgeStyle=orthogonalEdgeStyle;rounded=0;orthogonalLoop=1;jettySize=auto;html=1;strokeWidth=2;endArrow=openThin;endFill=0;startSize=6;endSize=15;dashed=1;exitX=1;exitY=0.5;exitDx=0;exitDy=0;entryX=1;entryY=0.5;entryDx=0;entryDy=0;" parent="WIyWlLk6GJQsqaUBKTNV-1" edge="1" target="NpN_3oIsCTOHhuz7XpSE-150">
          <mxGeometry relative="1" as="geometry">
            <mxPoint x="-975" y="1699.9999999999995" as="sourcePoint" />
            <mxPoint x="-790" y="1556" as="targetPoint" />
            <Array as="points">
              <mxPoint x="-730" y="1701" />
              <mxPoint x="-730" y="758" />
            </Array>
          </mxGeometry>
        </mxCell>
        <mxCell id="NpN_3oIsCTOHhuz7XpSE-194" value="&amp;lt;&amp;lt;create&amp;gt;&amp;gt;" style="text;align=center;fontStyle=1;verticalAlign=middle;spacingLeft=3;spacingRight=3;strokeColor=none;rotatable=0;points=[[0,0.5],[1,0.5]];portConstraint=eastwest;html=1;fontSize=20;" parent="WIyWlLk6GJQsqaUBKTNV-1" vertex="1">
          <mxGeometry x="-910" y="720" width="80" height="26" as="geometry" />
        </mxCell>
        <mxCell id="NpN_3oIsCTOHhuz7XpSE-195" value="" style="endArrow=none;html=1;rounded=0;strokeWidth=2;" parent="WIyWlLk6GJQsqaUBKTNV-1" edge="1">
          <mxGeometry width="50" height="50" relative="1" as="geometry">
            <mxPoint x="-1260" y="1541" as="sourcePoint" />
            <mxPoint x="-910" y="1541" as="targetPoint" />
            <Array as="points">
              <mxPoint x="-1260" y="1581" />
              <mxPoint x="-910" y="1581" />
            </Array>
          </mxGeometry>
        </mxCell>
        <mxCell id="NpN_3oIsCTOHhuz7XpSE-197" value="" style="endArrow=block;html=1;rounded=0;entryX=0.5;entryY=0;entryDx=0;entryDy=0;strokeWidth=2;endFill=0;endSize=15;" parent="WIyWlLk6GJQsqaUBKTNV-1" edge="1">
          <mxGeometry width="50" height="50" relative="1" as="geometry">
            <mxPoint x="-1080" y="1581" as="sourcePoint" />
            <mxPoint x="-1080" y="1661" as="targetPoint" />
          </mxGeometry>
        </mxCell>
        <mxCell id="NpN_3oIsCTOHhuz7XpSE-200" value="&amp;lt;&amp;lt;create&amp;gt;&amp;gt;" style="text;align=center;fontStyle=1;verticalAlign=middle;spacingLeft=3;spacingRight=3;strokeColor=none;rotatable=0;points=[[0,0.5],[1,0.5]];portConstraint=eastwest;html=1;fontSize=20;" parent="WIyWlLk6GJQsqaUBKTNV-1" vertex="1">
          <mxGeometry x="-1569.5" y="1170" width="80" height="26" as="geometry" />
        </mxCell>
        <mxCell id="NpN_3oIsCTOHhuz7XpSE-202" value="has" style="text;html=1;align=center;verticalAlign=middle;resizable=0;points=[];autosize=1;strokeColor=none;fillColor=none;fontSize=20;" parent="WIyWlLk6GJQsqaUBKTNV-1" vertex="1">
          <mxGeometry x="-1360" y="713" width="60" height="40" as="geometry" />
        </mxCell>
        <mxCell id="NpN_3oIsCTOHhuz7XpSE-203" value="1" style="text;html=1;align=center;verticalAlign=middle;resizable=0;points=[];autosize=1;strokeColor=none;fillColor=none;fontSize=20;" parent="WIyWlLk6GJQsqaUBKTNV-1" vertex="1">
          <mxGeometry x="-1415" y="713" width="30" height="40" as="geometry" />
        </mxCell>
        <mxCell id="NpN_3oIsCTOHhuz7XpSE-204" value="0..*" style="text;html=1;align=center;verticalAlign=middle;resizable=0;points=[];autosize=1;strokeColor=none;fillColor=none;fontSize=20;" parent="WIyWlLk6GJQsqaUBKTNV-1" vertex="1">
          <mxGeometry x="-1275" y="713" width="50" height="40" as="geometry" />
        </mxCell>
        <mxCell id="vuqO3tSjExuLQ793p518-0" value="&lt;i&gt;Memento&lt;/i&gt;" style="swimlane;fontStyle=1;align=center;verticalAlign=top;childLayout=stackLayout;horizontal=1;startSize=26;horizontalStack=0;resizeParent=1;resizeParentMax=0;resizeLast=0;collapsible=1;marginBottom=0;whiteSpace=wrap;html=1;" parent="WIyWlLk6GJQsqaUBKTNV-1" vertex="1">
          <mxGeometry x="-890" y="-650" width="160" height="110" as="geometry" />
        </mxCell>
        <mxCell id="vuqO3tSjExuLQ793p518-2" value="" style="line;strokeWidth=1;fillColor=none;align=left;verticalAlign=middle;spacingTop=-1;spacingLeft=3;spacingRight=3;rotatable=0;labelPosition=right;points=[];portConstraint=eastwest;strokeColor=inherit;" parent="vuqO3tSjExuLQ793p518-0" vertex="1">
          <mxGeometry y="26" width="160" height="34" as="geometry" />
        </mxCell>
        <mxCell id="vuqO3tSjExuLQ793p518-3" value="+ restore() : void&lt;div&gt;+ saveState() : void&lt;/div&gt;" style="text;strokeColor=none;fillColor=none;align=left;verticalAlign=top;spacingLeft=4;spacingRight=4;overflow=hidden;rotatable=0;points=[[0,0.5],[1,0.5]];portConstraint=eastwest;whiteSpace=wrap;html=1;" parent="vuqO3tSjExuLQ793p518-0" vertex="1">
          <mxGeometry y="60" width="160" height="50" as="geometry" />
        </mxCell>
        <mxCell id="vuqO3tSjExuLQ793p518-6" value="" style="endArrow=none;html=1;rounded=0;exitX=0.633;exitY=-0.015;exitDx=0;exitDy=0;exitPerimeter=0;entryX=0.25;entryY=0;entryDx=0;entryDy=0;strokeWidth=2;" parent="WIyWlLk6GJQsqaUBKTNV-1" edge="1">
          <mxGeometry width="50" height="50" relative="1" as="geometry">
            <mxPoint x="-1600.81" y="-49.99999999999983" as="sourcePoint" />
            <mxPoint x="-321.69" y="-50.000000000000455" as="targetPoint" />
            <Array as="points">
              <mxPoint x="-1599.19" y="-410" />
              <mxPoint x="-1599.19" y="-430" />
              <mxPoint x="-319.19" y="-430" />
            </Array>
          </mxGeometry>
        </mxCell>
        <mxCell id="vuqO3tSjExuLQ793p518-7" value="" style="endArrow=openThin;html=1;rounded=0;strokeWidth=2;endFill=0;endSize=15;" parent="WIyWlLk6GJQsqaUBKTNV-1" target="vuqO3tSjExuLQ793p518-0" edge="1">
          <mxGeometry width="50" height="50" relative="1" as="geometry">
            <mxPoint x="-811" y="-430" as="sourcePoint" />
            <mxPoint x="-810" y="-582" as="targetPoint" />
          </mxGeometry>
        </mxCell>
        <mxCell id="vuqO3tSjExuLQ793p518-8" value="HeroMemento" style="swimlane;fontStyle=1;align=center;verticalAlign=top;childLayout=stackLayout;horizontal=1;startSize=26;horizontalStack=0;resizeParent=1;resizeParentMax=0;resizeLast=0;collapsible=1;marginBottom=0;whiteSpace=wrap;html=1;" parent="WIyWlLk6GJQsqaUBKTNV-1" vertex="1">
          <mxGeometry x="-1000" y="-990" width="160" height="190" as="geometry" />
        </mxCell>
        <mxCell id="vuqO3tSjExuLQ793p518-9" value="- heroID : String&lt;div&gt;- heroName : String&lt;/div&gt;&lt;div&gt;- hp : int&lt;/div&gt;&lt;div&gt;- damage : int&lt;/div&gt;&lt;div&gt;- h : Hero&lt;/div&gt;&lt;div&gt;- p : Player&lt;/div&gt;" style="text;strokeColor=none;fillColor=none;align=left;verticalAlign=top;spacingLeft=4;spacingRight=4;overflow=hidden;rotatable=0;points=[[0,0.5],[1,0.5]];portConstraint=eastwest;whiteSpace=wrap;html=1;" parent="vuqO3tSjExuLQ793p518-8" vertex="1">
          <mxGeometry y="26" width="160" height="94" as="geometry" />
        </mxCell>
        <mxCell id="vuqO3tSjExuLQ793p518-10" value="" style="line;strokeWidth=1;fillColor=none;align=left;verticalAlign=middle;spacingTop=-1;spacingLeft=3;spacingRight=3;rotatable=0;labelPosition=right;points=[];portConstraint=eastwest;strokeColor=inherit;" parent="vuqO3tSjExuLQ793p518-8" vertex="1">
          <mxGeometry y="120" width="160" height="8" as="geometry" />
        </mxCell>
        <mxCell id="vuqO3tSjExuLQ793p518-11" value="+ HeroMemento( h : Hero)&lt;div&gt;+ restore() : void&lt;/div&gt;&lt;div&gt;+ saveState() : void&lt;/div&gt;" style="text;strokeColor=none;fillColor=none;align=left;verticalAlign=top;spacingLeft=4;spacingRight=4;overflow=hidden;rotatable=0;points=[[0,0.5],[1,0.5]];portConstraint=eastwest;whiteSpace=wrap;html=1;" parent="vuqO3tSjExuLQ793p518-8" vertex="1">
          <mxGeometry y="128" width="160" height="62" as="geometry" />
        </mxCell>
        <mxCell id="vuqO3tSjExuLQ793p518-12" value="PlayerMemento" style="swimlane;fontStyle=1;align=center;verticalAlign=top;childLayout=stackLayout;horizontal=1;startSize=26;horizontalStack=0;resizeParent=1;resizeParentMax=0;resizeLast=0;collapsible=1;marginBottom=0;whiteSpace=wrap;html=1;" parent="WIyWlLk6GJQsqaUBKTNV-1" vertex="1">
          <mxGeometry x="-780" y="-990" width="160" height="190" as="geometry" />
        </mxCell>
        <mxCell id="vuqO3tSjExuLQ793p518-13" value="- p : Player&lt;div&gt;- playerID : String&lt;/div&gt;&lt;div&gt;- playerName : String&lt;/div&gt;" style="text;strokeColor=none;fillColor=none;align=left;verticalAlign=top;spacingLeft=4;spacingRight=4;overflow=hidden;rotatable=0;points=[[0,0.5],[1,0.5]];portConstraint=eastwest;whiteSpace=wrap;html=1;" parent="vuqO3tSjExuLQ793p518-12" vertex="1">
          <mxGeometry y="26" width="160" height="64" as="geometry" />
        </mxCell>
        <mxCell id="vuqO3tSjExuLQ793p518-14" value="" style="line;strokeWidth=1;fillColor=none;align=left;verticalAlign=middle;spacingTop=-1;spacingLeft=3;spacingRight=3;rotatable=0;labelPosition=right;points=[];portConstraint=eastwest;strokeColor=inherit;" parent="vuqO3tSjExuLQ793p518-12" vertex="1">
          <mxGeometry y="90" width="160" height="8" as="geometry" />
        </mxCell>
        <mxCell id="vuqO3tSjExuLQ793p518-15" value="+ PlayerMemento( p : Player)&lt;div&gt;+ restore() : void&lt;/div&gt;&lt;div&gt;+ saveState() : void&lt;/div&gt;" style="text;strokeColor=none;fillColor=none;align=left;verticalAlign=top;spacingLeft=4;spacingRight=4;overflow=hidden;rotatable=0;points=[[0,0.5],[1,0.5]];portConstraint=eastwest;whiteSpace=wrap;html=1;" parent="vuqO3tSjExuLQ793p518-12" vertex="1">
          <mxGeometry y="98" width="160" height="92" as="geometry" />
        </mxCell>
        <mxCell id="vuqO3tSjExuLQ793p518-16" value="" style="endArrow=none;html=1;rounded=0;strokeWidth=2;dashed=1;entryX=0.495;entryY=1.009;entryDx=0;entryDy=0;entryPerimeter=0;" parent="WIyWlLk6GJQsqaUBKTNV-1" source="vuqO3tSjExuLQ793p518-11" target="vuqO3tSjExuLQ793p518-15" edge="1">
          <mxGeometry width="50" height="50" relative="1" as="geometry">
            <mxPoint x="-900" y="-770" as="sourcePoint" />
            <mxPoint x="-701" y="-790" as="targetPoint" />
            <Array as="points">
              <mxPoint x="-920" y="-750" />
              <mxPoint x="-700" y="-750" />
            </Array>
          </mxGeometry>
        </mxCell>
        <mxCell id="vuqO3tSjExuLQ793p518-18" value="" style="endArrow=none;html=1;rounded=0;exitX=0.5;exitY=0;exitDx=0;exitDy=0;strokeWidth=2;startSize=15;startArrow=block;startFill=0;dashed=1;" parent="WIyWlLk6GJQsqaUBKTNV-1" source="vuqO3tSjExuLQ793p518-0" edge="1">
          <mxGeometry width="50" height="50" relative="1" as="geometry">
            <mxPoint x="-830" y="-690" as="sourcePoint" />
            <mxPoint x="-810" y="-750" as="targetPoint" />
          </mxGeometry>
        </mxCell>
        <mxCell id="vuqO3tSjExuLQ793p518-19" value="&lt;font style=&quot;font-size: 12px;&quot;&gt;Originator : Player&lt;/font&gt;&lt;div&gt;&lt;font style=&quot;font-size: 12px;&quot;&gt;Memento : PlayerMemento&lt;/font&gt;&lt;/div&gt;" style="shape=note;size=20;whiteSpace=wrap;html=1;" parent="WIyWlLk6GJQsqaUBKTNV-1" vertex="1">
          <mxGeometry x="-570" y="-957" width="260" height="80" as="geometry" />
        </mxCell>
        <mxCell id="vuqO3tSjExuLQ793p518-20" value="&lt;font style=&quot;font-size: 12px;&quot;&gt;Originator : Hero&lt;/font&gt;&lt;div&gt;&lt;font style=&quot;font-size: 12px;&quot;&gt;Memento : HeroMemento&lt;/font&gt;&lt;/div&gt;" style="shape=note;size=20;whiteSpace=wrap;html=1;" parent="WIyWlLk6GJQsqaUBKTNV-1" vertex="1">
          <mxGeometry x="-1420" y="-957" width="290" height="80" as="geometry" />
        </mxCell>
        <mxCell id="vuqO3tSjExuLQ793p518-21" value="" style="endArrow=none;dashed=1;html=1;rounded=0;strokeWidth=2;" parent="WIyWlLk6GJQsqaUBKTNV-1" source="vuqO3tSjExuLQ793p518-20" target="vuqO3tSjExuLQ793p518-9" edge="1">
          <mxGeometry width="50" height="50" relative="1" as="geometry">
            <mxPoint x="-1100" y="-870" as="sourcePoint" />
            <mxPoint x="-1050" y="-920" as="targetPoint" />
          </mxGeometry>
        </mxCell>
        <mxCell id="vuqO3tSjExuLQ793p518-22" value="" style="endArrow=none;dashed=1;html=1;rounded=0;strokeWidth=2;" parent="WIyWlLk6GJQsqaUBKTNV-1" target="vuqO3tSjExuLQ793p518-19" edge="1">
          <mxGeometry width="50" height="50" relative="1" as="geometry">
            <mxPoint x="-620" y="-920" as="sourcePoint" />
            <mxPoint x="-560" y="-900" as="targetPoint" />
          </mxGeometry>
        </mxCell>
        <mxCell id="vuqO3tSjExuLQ793p518-23" value="" style="endArrow=none;dashed=1;html=1;rounded=0;strokeWidth=2;endFill=0;startArrow=openThin;startFill=0;startSize=15;exitX=1.001;exitY=0.11;exitDx=0;exitDy=0;exitPerimeter=0;" parent="WIyWlLk6GJQsqaUBKTNV-1" source="NpN_3oIsCTOHhuz7XpSE-179" edge="1">
          <mxGeometry width="50" height="50" relative="1" as="geometry">
            <mxPoint x="-710" y="1750" as="sourcePoint" />
            <mxPoint x="-710" y="390" as="targetPoint" />
            <Array as="points">
              <mxPoint x="-700" y="1736" />
            </Array>
          </mxGeometry>
        </mxCell>
        <mxCell id="vuqO3tSjExuLQ793p518-24" value="&amp;lt;&amp;lt;use&amp;gt;&amp;gt;" style="text;align=center;fontStyle=1;verticalAlign=middle;spacingLeft=3;spacingRight=3;strokeColor=none;rotatable=0;points=[[0,0.5],[1,0.5]];portConstraint=eastwest;html=1;fontSize=20;" parent="WIyWlLk6GJQsqaUBKTNV-1" vertex="1">
          <mxGeometry x="-870" y="1740" width="80" height="26" as="geometry" />
        </mxCell>
        <mxCell id="vuqO3tSjExuLQ793p518-25" value="" style="endArrow=none;dashed=1;html=1;rounded=0;entryX=0.164;entryY=0.98;entryDx=0;entryDy=0;entryPerimeter=0;strokeWidth=2;endFill=0;startArrow=openThin;startFill=0;startSize=15;" parent="WIyWlLk6GJQsqaUBKTNV-1" source="NpN_3oIsCTOHhuz7XpSE-172" edge="1">
          <mxGeometry width="50" height="50" relative="1" as="geometry">
            <mxPoint x="-1840" y="1492.857142857143" as="sourcePoint" />
            <mxPoint x="-1479" y="400" as="targetPoint" />
            <Array as="points">
              <mxPoint x="-1850" y="1473" />
              <mxPoint x="-1850" y="600" />
              <mxPoint x="-1479" y="600" />
            </Array>
          </mxGeometry>
        </mxCell>
        <mxCell id="vuqO3tSjExuLQ793p518-26" value="&amp;lt;&amp;lt;use&amp;gt;&amp;gt;" style="text;align=center;fontStyle=1;verticalAlign=middle;spacingLeft=3;spacingRight=3;strokeColor=none;rotatable=0;points=[[0,0.5],[1,0.5]];portConstraint=eastwest;html=1;fontSize=20;" parent="WIyWlLk6GJQsqaUBKTNV-1" vertex="1">
          <mxGeometry x="-1790" y="1440" width="80" height="26" as="geometry" />
        </mxCell>
        <mxCell id="vuqO3tSjExuLQ793p518-38" value="&lt;font style=&quot;font-size: 12px;&quot;&gt;ChangePlayerNameCommand&lt;/font&gt;&lt;div&gt;&lt;font style=&quot;font-size: 12px;&quot;&gt;CallHeroSkillCommand&lt;/font&gt;&lt;/div&gt;&lt;div&gt;&lt;font style=&quot;font-size: 12px;&quot;&gt;&amp;lt;&amp;lt;Caretaker&amp;gt;&amp;gt;&lt;/font&gt;&lt;/div&gt;&lt;div&gt;&lt;font style=&quot;font-size: 12px;&quot;&gt;That&#39;s why they has association relationship with Memento interface&lt;/font&gt;&lt;/div&gt;" style="shape=note;size=20;whiteSpace=wrap;html=1;" parent="WIyWlLk6GJQsqaUBKTNV-1" vertex="1">
          <mxGeometry x="-1919" y="-570" width="380" height="80" as="geometry" />
        </mxCell>
        <mxCell id="vuqO3tSjExuLQ793p518-39" style="edgeStyle=orthogonalEdgeStyle;rounded=0;orthogonalLoop=1;jettySize=auto;html=1;entryX=0.5;entryY=1;entryDx=0;entryDy=0;entryPerimeter=0;endArrow=none;endFill=0;dashed=1;strokeWidth=2;exitX=0.25;exitY=0;exitDx=0;exitDy=0;" parent="WIyWlLk6GJQsqaUBKTNV-1" source="NpN_3oIsCTOHhuz7XpSE-48" target="vuqO3tSjExuLQ793p518-38" edge="1">
          <mxGeometry relative="1" as="geometry">
            <mxPoint x="-1730" y="-60" as="sourcePoint" />
          </mxGeometry>
        </mxCell>
        <mxCell id="e7Ab-RQ2rSX-xsPpsTMO-4" value="&lt;i&gt;CurrentPlayerManager&lt;/i&gt;" style="swimlane;fontStyle=1;align=center;verticalAlign=top;childLayout=stackLayout;horizontal=1;startSize=26;horizontalStack=0;resizeParent=1;resizeParentMax=0;resizeLast=0;collapsible=1;marginBottom=0;whiteSpace=wrap;html=1;" vertex="1" parent="WIyWlLk6GJQsqaUBKTNV-1">
          <mxGeometry x="-2616" y="-380" width="270" height="130" as="geometry" />
        </mxCell>
        <mxCell id="e7Ab-RQ2rSX-xsPpsTMO-6" value="" style="line;strokeWidth=1;fillColor=none;align=left;verticalAlign=middle;spacingTop=-1;spacingLeft=3;spacingRight=3;rotatable=0;labelPosition=right;points=[];portConstraint=eastwest;strokeColor=inherit;" vertex="1" parent="e7Ab-RQ2rSX-xsPpsTMO-4">
          <mxGeometry y="26" width="270" height="8" as="geometry" />
        </mxCell>
        <mxCell id="e7Ab-RQ2rSX-xsPpsTMO-7" value="&lt;i&gt;+ getCurrentPlayer() : Player&lt;/i&gt;&lt;div&gt;&lt;i&gt;+ setCurrentPlayer( playerID : String, playerName : String) : void&lt;/i&gt;&lt;/div&gt;&lt;div&gt;&lt;i&gt;+ checkCurrentPlayer(player Player) : boolean&lt;/i&gt;&lt;/div&gt;&lt;div&gt;&lt;i&gt;+ display() : void&lt;/i&gt;&lt;/div&gt;" style="text;strokeColor=none;fillColor=none;align=left;verticalAlign=top;spacingLeft=4;spacingRight=4;overflow=hidden;rotatable=0;points=[[0,0.5],[1,0.5]];portConstraint=eastwest;whiteSpace=wrap;html=1;" vertex="1" parent="e7Ab-RQ2rSX-xsPpsTMO-4">
          <mxGeometry y="34" width="270" height="96" as="geometry" />
        </mxCell>
        <mxCell id="e7Ab-RQ2rSX-xsPpsTMO-8" value="ConcreteCurrentPlayerManager" style="swimlane;fontStyle=1;align=center;verticalAlign=top;childLayout=stackLayout;horizontal=1;startSize=26;horizontalStack=0;resizeParent=1;resizeParentMax=0;resizeLast=0;collapsible=1;marginBottom=0;whiteSpace=wrap;html=1;" vertex="1" parent="WIyWlLk6GJQsqaUBKTNV-1">
          <mxGeometry x="-2618" y="-770" width="272" height="170" as="geometry" />
        </mxCell>
        <mxCell id="e7Ab-RQ2rSX-xsPpsTMO-9" value="- currentPlayer : Player&lt;div&gt;- players : ArrayList&amp;lt;Player&amp;gt;&lt;/div&gt;" style="text;strokeColor=none;fillColor=none;align=left;verticalAlign=top;spacingLeft=4;spacingRight=4;overflow=hidden;rotatable=0;points=[[0,0.5],[1,0.5]];portConstraint=eastwest;whiteSpace=wrap;html=1;" vertex="1" parent="e7Ab-RQ2rSX-xsPpsTMO-8">
          <mxGeometry y="26" width="272" height="44" as="geometry" />
        </mxCell>
        <mxCell id="e7Ab-RQ2rSX-xsPpsTMO-10" value="" style="line;strokeWidth=1;fillColor=none;align=left;verticalAlign=middle;spacingTop=-1;spacingLeft=3;spacingRight=3;rotatable=0;labelPosition=right;points=[];portConstraint=eastwest;strokeColor=inherit;" vertex="1" parent="e7Ab-RQ2rSX-xsPpsTMO-8">
          <mxGeometry y="70" width="272" height="8" as="geometry" />
        </mxCell>
        <mxCell id="e7Ab-RQ2rSX-xsPpsTMO-11" value="+ getCurrentPlayer() : Player&lt;div&gt;+ setCurrentPlayer(playerID : String, playerName : String)&lt;/div&gt;&lt;div&gt;+ checkCurrentPlayer( player Player) : boolean&lt;/div&gt;&lt;div&gt;+ display() : void&lt;/div&gt;" style="text;strokeColor=none;fillColor=none;align=left;verticalAlign=top;spacingLeft=4;spacingRight=4;overflow=hidden;rotatable=0;points=[[0,0.5],[1,0.5]];portConstraint=eastwest;whiteSpace=wrap;html=1;" vertex="1" parent="e7Ab-RQ2rSX-xsPpsTMO-8">
          <mxGeometry y="78" width="272" height="92" as="geometry" />
        </mxCell>
        <mxCell id="e7Ab-RQ2rSX-xsPpsTMO-15" value="" style="endArrow=none;dashed=1;html=1;rounded=0;strokeWidth=2;endFill=0;startArrow=block;startFill=0;startSize=15;" edge="1" parent="WIyWlLk6GJQsqaUBKTNV-1" source="e7Ab-RQ2rSX-xsPpsTMO-4" target="e7Ab-RQ2rSX-xsPpsTMO-11">
          <mxGeometry width="50" height="50" relative="1" as="geometry">
            <mxPoint x="-2010" y="390" as="sourcePoint" />
            <mxPoint x="-2482" y="-560" as="targetPoint" />
          </mxGeometry>
        </mxCell>
        <mxCell id="e7Ab-RQ2rSX-xsPpsTMO-16" value="" style="endArrow=openThin;html=1;rounded=0;strokeWidth=2;endFill=0;startArrow=none;startFill=0;startSize=6;endSize=15;" edge="1" parent="WIyWlLk6GJQsqaUBKTNV-1" source="0935TuHeCaS-1WZXopsR-0" target="e7Ab-RQ2rSX-xsPpsTMO-4">
          <mxGeometry width="50" height="50" relative="1" as="geometry">
            <mxPoint x="50" y="860" as="sourcePoint" />
            <mxPoint x="-2480.9998994974876" y="-470" as="targetPoint" />
            <Array as="points">
              <mxPoint x="49.980000000000004" y="1870" />
              <mxPoint x="-2480.02" y="1870" />
            </Array>
          </mxGeometry>
        </mxCell>
        <mxCell id="e7Ab-RQ2rSX-xsPpsTMO-17" value="1&lt;div style=&quot;font-size: 20px;&quot;&gt;&lt;br style=&quot;font-size: 20px;&quot;&gt;&lt;/div&gt;" style="text;html=1;align=center;verticalAlign=middle;resizable=0;points=[];autosize=1;strokeColor=none;fillColor=none;fontSize=20;" vertex="1" parent="WIyWlLk6GJQsqaUBKTNV-1">
          <mxGeometry x="-2481" y="-230" width="30" height="60" as="geometry" />
        </mxCell>
        <mxCell id="e7Ab-RQ2rSX-xsPpsTMO-18" value="" style="endArrow=openThin;dashed=1;html=1;rounded=0;entryX=1;entryY=0.5;entryDx=0;entryDy=0;strokeWidth=2;endFill=0;startSize=6;endSize=15;" edge="1" parent="WIyWlLk6GJQsqaUBKTNV-1" source="0935TuHeCaS-1WZXopsR-4" target="NpN_3oIsCTOHhuz7XpSE-132">
          <mxGeometry width="50" height="50" relative="1" as="geometry">
            <mxPoint x="310" y="640" as="sourcePoint" />
            <mxPoint x="1390" y="-610" as="targetPoint" />
            <Array as="points">
              <mxPoint x="1560" y="600" />
              <mxPoint x="1560" y="-511" />
            </Array>
          </mxGeometry>
        </mxCell>
        <mxCell id="e7Ab-RQ2rSX-xsPpsTMO-20" value="&lt;font style=&quot;font-size: 20px;&quot;&gt;&amp;lt;&amp;lt;create&amp;gt;&amp;gt;&lt;/font&gt;" style="edgeLabel;html=1;align=center;verticalAlign=middle;resizable=0;points=[];" vertex="1" connectable="0" parent="e7Ab-RQ2rSX-xsPpsTMO-18">
          <mxGeometry x="0.858" y="-3" relative="1" as="geometry">
            <mxPoint x="1" as="offset" />
          </mxGeometry>
        </mxCell>
        <mxCell id="e7Ab-RQ2rSX-xsPpsTMO-21" value="" style="endArrow=none;html=1;rounded=0;exitX=0.785;exitY=1.03;exitDx=0;exitDy=0;exitPerimeter=0;strokeWidth=2;endFill=0;startArrow=openThin;startFill=0;endSize=6;startSize=15;" edge="1" parent="WIyWlLk6GJQsqaUBKTNV-1" source="e7Ab-RQ2rSX-xsPpsTMO-7">
          <mxGeometry width="50" height="50" relative="1" as="geometry">
            <mxPoint x="-2400" y="140" as="sourcePoint" />
            <mxPoint x="-530" y="160" as="targetPoint" />
            <Array as="points">
              <mxPoint x="-2404" y="160" />
            </Array>
          </mxGeometry>
        </mxCell>
        <mxCell id="e7Ab-RQ2rSX-xsPpsTMO-22" value="1&lt;div style=&quot;font-size: 20px;&quot;&gt;&lt;br style=&quot;font-size: 20px;&quot;&gt;&lt;/div&gt;" style="text;html=1;align=center;verticalAlign=middle;resizable=0;points=[];autosize=1;strokeColor=none;fillColor=none;fontSize=20;" vertex="1" parent="WIyWlLk6GJQsqaUBKTNV-1">
          <mxGeometry x="-2376" y="-230" width="30" height="60" as="geometry" />
        </mxCell>
        <mxCell id="e7Ab-RQ2rSX-xsPpsTMO-23" value="" style="endArrow=none;html=1;rounded=0;strokeWidth=2;" edge="1" parent="WIyWlLk6GJQsqaUBKTNV-1" target="NpN_3oIsCTOHhuz7XpSE-48">
          <mxGeometry width="50" height="50" relative="1" as="geometry">
            <mxPoint x="-1670" y="160" as="sourcePoint" />
            <mxPoint x="-1650" y="110" as="targetPoint" />
          </mxGeometry>
        </mxCell>
        <mxCell id="e7Ab-RQ2rSX-xsPpsTMO-25" value="" style="endArrow=none;html=1;rounded=0;strokeWidth=2;" edge="1" parent="WIyWlLk6GJQsqaUBKTNV-1">
          <mxGeometry width="50" height="50" relative="1" as="geometry">
            <mxPoint x="-1390" y="160" as="sourcePoint" />
            <mxPoint x="-1390" y="80" as="targetPoint" />
          </mxGeometry>
        </mxCell>
        <mxCell id="e7Ab-RQ2rSX-xsPpsTMO-27" value="" style="endArrow=none;html=1;rounded=0;strokeWidth=2;" edge="1" parent="WIyWlLk6GJQsqaUBKTNV-1">
          <mxGeometry width="50" height="50" relative="1" as="geometry">
            <mxPoint x="-1100.77" y="160" as="sourcePoint" />
            <mxPoint x="-1100.77" y="80" as="targetPoint" />
          </mxGeometry>
        </mxCell>
        <mxCell id="e7Ab-RQ2rSX-xsPpsTMO-28" value="" style="endArrow=none;html=1;rounded=0;strokeWidth=2;" edge="1" parent="WIyWlLk6GJQsqaUBKTNV-1">
          <mxGeometry width="50" height="50" relative="1" as="geometry">
            <mxPoint x="-810.77" y="160" as="sourcePoint" />
            <mxPoint x="-810.77" y="80" as="targetPoint" />
          </mxGeometry>
        </mxCell>
        <mxCell id="e7Ab-RQ2rSX-xsPpsTMO-29" value="" style="endArrow=none;html=1;rounded=0;strokeWidth=2;" edge="1" parent="WIyWlLk6GJQsqaUBKTNV-1">
          <mxGeometry width="50" height="50" relative="1" as="geometry">
            <mxPoint x="-531.77" y="160" as="sourcePoint" />
            <mxPoint x="-531.77" y="80" as="targetPoint" />
          </mxGeometry>
        </mxCell>
      </root>
    </mxGraphModel>
  </diagram>
</mxfile>
